solid OpenSCAD_Model
  facet normal 0.999507 0.0314127 0
    outer loop
      vertex 9 0 154.75
      vertex 8.99211 0.251162 148.75
      vertex 8.99211 0.251162 154.75
    endloop
  endfacet
  facet normal 0.999507 0.0314127 0
    outer loop
      vertex 8.99211 0.251162 148.75
      vertex 9 0 154.75
      vertex 9 0 148.75
    endloop
  endfacet
  facet normal 0.995562 0.0941052 0
    outer loop
      vertex 8.99211 0.251162 154.75
      vertex 8.96846 0.501333 148.75
      vertex 8.96846 0.501333 154.75
    endloop
  endfacet
  facet normal 0.995562 0.0941052 0
    outer loop
      vertex 8.96846 0.501333 148.75
      vertex 8.99211 0.251162 154.75
      vertex 8.99211 0.251162 148.75
    endloop
  endfacet
  facet normal 0.987688 0.156437 0
    outer loop
      vertex 8.96846 0.501333 154.75
      vertex 8.92915 0.749525 148.75
      vertex 8.92915 0.749525 154.75
    endloop
  endfacet
  facet normal 0.987688 0.156437 0
    outer loop
      vertex 8.92915 0.749525 148.75
      vertex 8.96846 0.501333 154.75
      vertex 8.96846 0.501333 148.75
    endloop
  endfacet
  facet normal 0.975917 0.218143 0
    outer loop
      vertex 8.92915 0.749525 154.75
      vertex 8.87433 0.99476 148.75
      vertex 8.87433 0.99476 154.75
    endloop
  endfacet
  facet normal 0.975917 0.218143 0
    outer loop
      vertex 8.87433 0.99476 148.75
      vertex 8.92915 0.749525 154.75
      vertex 8.92915 0.749525 148.75
    endloop
  endfacet
  facet normal 0.960294 0.278991 0
    outer loop
      vertex 8.87433 0.99476 154.75
      vertex 8.80423 1.23607 148.75
      vertex 8.80423 1.23607 154.75
    endloop
  endfacet
  facet normal 0.960294 0.278991 0
    outer loop
      vertex 8.80423 1.23607 148.75
      vertex 8.87433 0.99476 154.75
      vertex 8.87433 0.99476 148.75
    endloop
  endfacet
  facet normal 0.940881 0.338738 0
    outer loop
      vertex 8.80423 1.23607 154.75
      vertex 8.71911 1.4725 148.75
      vertex 8.71911 1.4725 154.75
    endloop
  endfacet
  facet normal 0.940881 0.338738 0
    outer loop
      vertex 8.71911 1.4725 148.75
      vertex 8.80423 1.23607 154.75
      vertex 8.80423 1.23607 148.75
    endloop
  endfacet
  facet normal 0.917755 0.397146 0
    outer loop
      vertex 8.71911 1.4725 154.75
      vertex 8.61931 1.70312 148.75
      vertex 8.61931 1.70312 154.75
    endloop
  endfacet
  facet normal 0.917755 0.397146 0
    outer loop
      vertex 8.61931 1.70312 148.75
      vertex 8.71911 1.4725 154.75
      vertex 8.71911 1.4725 148.75
    endloop
  endfacet
  facet normal 0.891007 0.45399 0
    outer loop
      vertex 8.61931 1.70312 154.75
      vertex 8.50523 1.92701 148.75
      vertex 8.50523 1.92701 154.75
    endloop
  endfacet
  facet normal 0.891007 0.45399 0
    outer loop
      vertex 8.50523 1.92701 148.75
      vertex 8.61931 1.70312 154.75
      vertex 8.61931 1.70312 148.75
    endloop
  endfacet
  facet normal 0.860741 0.509042 0
    outer loop
      vertex 8.50523 1.92701 154.75
      vertex 8.37731 2.14331 148.75
      vertex 8.37731 2.14331 154.75
    endloop
  endfacet
  facet normal 0.860741 0.509042 0
    outer loop
      vertex 8.37731 2.14331 148.75
      vertex 8.50523 1.92701 154.75
      vertex 8.50523 1.92701 148.75
    endloop
  endfacet
  facet normal 0.82708 0.562084 0
    outer loop
      vertex 8.37731 2.14331 154.75
      vertex 8.23607 2.35114 148.75
      vertex 8.23607 2.35114 154.75
    endloop
  endfacet
  facet normal 0.82708 0.562084 0
    outer loop
      vertex 8.23607 2.35114 148.75
      vertex 8.37731 2.14331 154.75
      vertex 8.37731 2.14331 148.75
    endloop
  endfacet
  facet normal 0.790156 0.612906 0
    outer loop
      vertex 8.23607 2.35114 154.75
      vertex 8.08205 2.5497 148.75
      vertex 8.08205 2.5497 154.75
    endloop
  endfacet
  facet normal 0.790156 0.612906 0
    outer loop
      vertex 8.08205 2.5497 148.75
      vertex 8.23607 2.35114 154.75
      vertex 8.23607 2.35114 148.75
    endloop
  endfacet
  facet normal 0.750111 0.661312 0
    outer loop
      vertex 8.08205 2.5497 154.75
      vertex 7.91587 2.73819 148.75
      vertex 7.91587 2.73819 154.75
    endloop
  endfacet
  facet normal 0.750111 0.661312 0
    outer loop
      vertex 7.91587 2.73819 148.75
      vertex 8.08205 2.5497 154.75
      vertex 8.08205 2.5497 148.75
    endloop
  endfacet
  facet normal 0.707106 0.707107 -0
    outer loop
      vertex 7.91587 2.73819 148.75
      vertex 7.73819 2.91587 154.75
      vertex 7.91587 2.73819 154.75
    endloop
  endfacet
  facet normal 0.707106 0.707107 0
    outer loop
      vertex 7.73819 2.91587 154.75
      vertex 7.91587 2.73819 148.75
      vertex 7.73819 2.91587 148.75
    endloop
  endfacet
  facet normal 0.661312 0.750111 -0
    outer loop
      vertex 7.73819 2.91587 148.75
      vertex 7.5497 3.08205 154.75
      vertex 7.73819 2.91587 154.75
    endloop
  endfacet
  facet normal 0.661312 0.750111 0
    outer loop
      vertex 7.5497 3.08205 154.75
      vertex 7.73819 2.91587 148.75
      vertex 7.5497 3.08205 148.75
    endloop
  endfacet
  facet normal 0.612907 0.790155 -0
    outer loop
      vertex 7.5497 3.08205 148.75
      vertex 7.35114 3.23607 154.75
      vertex 7.5497 3.08205 154.75
    endloop
  endfacet
  facet normal 0.612907 0.790155 0
    outer loop
      vertex 7.35114 3.23607 154.75
      vertex 7.5497 3.08205 148.75
      vertex 7.35114 3.23607 148.75
    endloop
  endfacet
  facet normal 0.562083 0.827081 -0
    outer loop
      vertex 7.35114 3.23607 148.75
      vertex 7.14331 3.37731 154.75
      vertex 7.35114 3.23607 154.75
    endloop
  endfacet
  facet normal 0.562083 0.827081 0
    outer loop
      vertex 7.14331 3.37731 154.75
      vertex 7.35114 3.23607 148.75
      vertex 7.14331 3.37731 148.75
    endloop
  endfacet
  facet normal 0.509041 0.860742 -0
    outer loop
      vertex 7.14331 3.37731 148.75
      vertex 6.92701 3.50523 154.75
      vertex 7.14331 3.37731 154.75
    endloop
  endfacet
  facet normal 0.509041 0.860742 0
    outer loop
      vertex 6.92701 3.50523 154.75
      vertex 7.14331 3.37731 148.75
      vertex 6.92701 3.50523 148.75
    endloop
  endfacet
  facet normal 0.453991 0.891006 -0
    outer loop
      vertex 6.92701 3.50523 148.75
      vertex 6.70312 3.61931 154.75
      vertex 6.92701 3.50523 154.75
    endloop
  endfacet
  facet normal 0.453991 0.891006 0
    outer loop
      vertex 6.70312 3.61931 154.75
      vertex 6.92701 3.50523 148.75
      vertex 6.70312 3.61931 148.75
    endloop
  endfacet
  facet normal 0.397148 0.917755 -0
    outer loop
      vertex 6.70312 3.61931 148.75
      vertex 6.4725 3.71911 154.75
      vertex 6.70312 3.61931 154.75
    endloop
  endfacet
  facet normal 0.397148 0.917755 0
    outer loop
      vertex 6.4725 3.71911 154.75
      vertex 6.70312 3.61931 148.75
      vertex 6.4725 3.71911 148.75
    endloop
  endfacet
  facet normal 0.338738 0.940881 -0
    outer loop
      vertex 6.4725 3.71911 148.75
      vertex 6.23607 3.80423 154.75
      vertex 6.4725 3.71911 154.75
    endloop
  endfacet
  facet normal 0.338738 0.940881 0
    outer loop
      vertex 6.23607 3.80423 154.75
      vertex 6.4725 3.71911 148.75
      vertex 6.23607 3.80423 148.75
    endloop
  endfacet
  facet normal 0.278991 0.960294 -0
    outer loop
      vertex 6.23607 3.80423 148.75
      vertex 5.99476 3.87433 154.75
      vertex 6.23607 3.80423 154.75
    endloop
  endfacet
  facet normal 0.278991 0.960294 0
    outer loop
      vertex 5.99476 3.87433 154.75
      vertex 6.23607 3.80423 148.75
      vertex 5.99476 3.87433 148.75
    endloop
  endfacet
  facet normal 0.218143 0.975917 -0
    outer loop
      vertex 5.99476 3.87433 148.75
      vertex 5.74953 3.92915 154.75
      vertex 5.99476 3.87433 154.75
    endloop
  endfacet
  facet normal 0.218143 0.975917 0
    outer loop
      vertex 5.74953 3.92915 154.75
      vertex 5.99476 3.87433 148.75
      vertex 5.74953 3.92915 148.75
    endloop
  endfacet
  facet normal 0.156435 0.987688 -0
    outer loop
      vertex 5.74953 3.92915 148.75
      vertex 5.50133 3.96846 154.75
      vertex 5.74953 3.92915 154.75
    endloop
  endfacet
  facet normal 0.156435 0.987688 0
    outer loop
      vertex 5.50133 3.96846 154.75
      vertex 5.74953 3.92915 148.75
      vertex 5.50133 3.96846 148.75
    endloop
  endfacet
  facet normal 0.094108 0.995562 -0
    outer loop
      vertex 5.50133 3.96846 148.75
      vertex 5.25116 3.99211 154.75
      vertex 5.50133 3.96846 154.75
    endloop
  endfacet
  facet normal 0.094108 0.995562 0
    outer loop
      vertex 5.25116 3.99211 154.75
      vertex 5.50133 3.96846 148.75
      vertex 5.25116 3.99211 148.75
    endloop
  endfacet
  facet normal 0.0314108 0.999507 -0
    outer loop
      vertex 5.25116 3.99211 148.75
      vertex 5 4 154.75
      vertex 5.25116 3.99211 154.75
    endloop
  endfacet
  facet normal 0.0314108 0.999507 0
    outer loop
      vertex 5 4 154.75
      vertex 5.25116 3.99211 148.75
      vertex 5 4 148.75
    endloop
  endfacet
  facet normal -0.0314108 0.999507 0
    outer loop
      vertex 5 4 148.75
      vertex 4.74884 3.99211 154.75
      vertex 5 4 154.75
    endloop
  endfacet
  facet normal -0.0314108 0.999507 0
    outer loop
      vertex 4.74884 3.99211 154.75
      vertex 5 4 148.75
      vertex 4.74884 3.99211 148.75
    endloop
  endfacet
  facet normal -0.094108 0.995562 0
    outer loop
      vertex 4.74884 3.99211 148.75
      vertex 4.49867 3.96846 154.75
      vertex 4.74884 3.99211 154.75
    endloop
  endfacet
  facet normal -0.094108 0.995562 0
    outer loop
      vertex 4.49867 3.96846 154.75
      vertex 4.74884 3.99211 148.75
      vertex 4.49867 3.96846 148.75
    endloop
  endfacet
  facet normal -0.156435 0.987688 0
    outer loop
      vertex 4.49867 3.96846 148.75
      vertex 4.25047 3.92915 154.75
      vertex 4.49867 3.96846 154.75
    endloop
  endfacet
  facet normal -0.156435 0.987688 0
    outer loop
      vertex 4.25047 3.92915 154.75
      vertex 4.49867 3.96846 148.75
      vertex 4.25047 3.92915 148.75
    endloop
  endfacet
  facet normal -0.218143 0.975917 0
    outer loop
      vertex 4.25047 3.92915 148.75
      vertex 4.00524 3.87433 154.75
      vertex 4.25047 3.92915 154.75
    endloop
  endfacet
  facet normal -0.218143 0.975917 0
    outer loop
      vertex 4.00524 3.87433 154.75
      vertex 4.25047 3.92915 148.75
      vertex 4.00524 3.87433 148.75
    endloop
  endfacet
  facet normal -0.278991 0.960294 0
    outer loop
      vertex 4.00524 3.87433 148.75
      vertex 3.76393 3.80423 154.75
      vertex 4.00524 3.87433 154.75
    endloop
  endfacet
  facet normal -0.278991 0.960294 0
    outer loop
      vertex 3.76393 3.80423 154.75
      vertex 4.00524 3.87433 148.75
      vertex 3.76393 3.80423 148.75
    endloop
  endfacet
  facet normal -0.338738 0.940881 0
    outer loop
      vertex 3.76393 3.80423 148.75
      vertex 3.5275 3.71911 154.75
      vertex 3.76393 3.80423 154.75
    endloop
  endfacet
  facet normal -0.338738 0.940881 0
    outer loop
      vertex 3.5275 3.71911 154.75
      vertex 3.76393 3.80423 148.75
      vertex 3.5275 3.71911 148.75
    endloop
  endfacet
  facet normal -0.397148 0.917755 0
    outer loop
      vertex 3.5275 3.71911 148.75
      vertex 3.29688 3.61931 154.75
      vertex 3.5275 3.71911 154.75
    endloop
  endfacet
  facet normal -0.397148 0.917755 0
    outer loop
      vertex 3.29688 3.61931 154.75
      vertex 3.5275 3.71911 148.75
      vertex 3.29688 3.61931 148.75
    endloop
  endfacet
  facet normal -0.453991 0.891006 0
    outer loop
      vertex 3.29688 3.61931 148.75
      vertex 3.07299 3.50523 154.75
      vertex 3.29688 3.61931 154.75
    endloop
  endfacet
  facet normal -0.453991 0.891006 0
    outer loop
      vertex 3.07299 3.50523 154.75
      vertex 3.29688 3.61931 148.75
      vertex 3.07299 3.50523 148.75
    endloop
  endfacet
  facet normal -0.509041 0.860742 0
    outer loop
      vertex 3.07299 3.50523 148.75
      vertex 2.85669 3.37731 154.75
      vertex 3.07299 3.50523 154.75
    endloop
  endfacet
  facet normal -0.509041 0.860742 0
    outer loop
      vertex 2.85669 3.37731 154.75
      vertex 3.07299 3.50523 148.75
      vertex 2.85669 3.37731 148.75
    endloop
  endfacet
  facet normal -0.562083 0.827081 0
    outer loop
      vertex 2.85669 3.37731 148.75
      vertex 2.64886 3.23607 154.75
      vertex 2.85669 3.37731 154.75
    endloop
  endfacet
  facet normal -0.562083 0.827081 0
    outer loop
      vertex 2.64886 3.23607 154.75
      vertex 2.85669 3.37731 148.75
      vertex 2.64886 3.23607 148.75
    endloop
  endfacet
  facet normal -0.612907 0.790155 0
    outer loop
      vertex 2.64886 3.23607 148.75
      vertex 2.4503 3.08205 154.75
      vertex 2.64886 3.23607 154.75
    endloop
  endfacet
  facet normal -0.612907 0.790155 0
    outer loop
      vertex 2.4503 3.08205 154.75
      vertex 2.64886 3.23607 148.75
      vertex 2.4503 3.08205 148.75
    endloop
  endfacet
  facet normal -0.661312 0.750111 0
    outer loop
      vertex 2.4503 3.08205 148.75
      vertex 2.26181 2.91587 154.75
      vertex 2.4503 3.08205 154.75
    endloop
  endfacet
  facet normal -0.661312 0.750111 0
    outer loop
      vertex 2.26181 2.91587 154.75
      vertex 2.4503 3.08205 148.75
      vertex 2.26181 2.91587 148.75
    endloop
  endfacet
  facet normal -0.707107 0.707107 0
    outer loop
      vertex 2.08413 2.73819 148.75
      vertex 2.26181 2.91587 154.75
      vertex 2.26181 2.91587 148.75
    endloop
  endfacet
  facet normal -0.707107 0.707107 0
    outer loop
      vertex 2.26181 2.91587 154.75
      vertex 2.08413 2.73819 148.75
      vertex 2.08413 2.73819 154.75
    endloop
  endfacet
  facet normal -0.750111 0.661312 0
    outer loop
      vertex 1.91795 2.5497 148.75
      vertex 2.08413 2.73819 154.75
      vertex 2.08413 2.73819 148.75
    endloop
  endfacet
  facet normal -0.750111 0.661312 0
    outer loop
      vertex 2.08413 2.73819 154.75
      vertex 1.91795 2.5497 148.75
      vertex 1.91795 2.5497 154.75
    endloop
  endfacet
  facet normal -0.790155 0.612907 0
    outer loop
      vertex 1.76393 2.35114 148.75
      vertex 1.91795 2.5497 154.75
      vertex 1.91795 2.5497 148.75
    endloop
  endfacet
  facet normal -0.790155 0.612907 0
    outer loop
      vertex 1.91795 2.5497 154.75
      vertex 1.76393 2.35114 148.75
      vertex 1.76393 2.35114 154.75
    endloop
  endfacet
  facet normal -0.827081 0.562083 0
    outer loop
      vertex 1.62269 2.14331 148.75
      vertex 1.76393 2.35114 154.75
      vertex 1.76393 2.35114 148.75
    endloop
  endfacet
  facet normal -0.827081 0.562083 0
    outer loop
      vertex 1.76393 2.35114 154.75
      vertex 1.62269 2.14331 148.75
      vertex 1.62269 2.14331 154.75
    endloop
  endfacet
  facet normal -0.860742 0.509041 0
    outer loop
      vertex 1.49477 1.92701 148.75
      vertex 1.62269 2.14331 154.75
      vertex 1.62269 2.14331 148.75
    endloop
  endfacet
  facet normal -0.860742 0.509041 0
    outer loop
      vertex 1.62269 2.14331 154.75
      vertex 1.49477 1.92701 148.75
      vertex 1.49477 1.92701 154.75
    endloop
  endfacet
  facet normal -0.891007 0.45399 0
    outer loop
      vertex 1.38069 1.70312 148.75
      vertex 1.49477 1.92701 154.75
      vertex 1.49477 1.92701 148.75
    endloop
  endfacet
  facet normal -0.891007 0.45399 0
    outer loop
      vertex 1.49477 1.92701 154.75
      vertex 1.38069 1.70312 148.75
      vertex 1.38069 1.70312 154.75
    endloop
  endfacet
  facet normal -0.917755 0.397148 0
    outer loop
      vertex 1.28089 1.4725 148.75
      vertex 1.38069 1.70312 154.75
      vertex 1.38069 1.70312 148.75
    endloop
  endfacet
  facet normal -0.917755 0.397148 0
    outer loop
      vertex 1.38069 1.70312 154.75
      vertex 1.28089 1.4725 148.75
      vertex 1.28089 1.4725 154.75
    endloop
  endfacet
  facet normal -0.940881 0.338738 0
    outer loop
      vertex 1.19577 1.23607 148.75
      vertex 1.28089 1.4725 154.75
      vertex 1.28089 1.4725 148.75
    endloop
  endfacet
  facet normal -0.940881 0.338738 0
    outer loop
      vertex 1.28089 1.4725 154.75
      vertex 1.19577 1.23607 148.75
      vertex 1.19577 1.23607 154.75
    endloop
  endfacet
  facet normal -0.960294 0.278991 0
    outer loop
      vertex 1.12567 0.99476 148.75
      vertex 1.19577 1.23607 154.75
      vertex 1.19577 1.23607 148.75
    endloop
  endfacet
  facet normal -0.960294 0.278991 0
    outer loop
      vertex 1.19577 1.23607 154.75
      vertex 1.12567 0.99476 148.75
      vertex 1.12567 0.99476 154.75
    endloop
  endfacet
  facet normal -0.975917 0.218143 0
    outer loop
      vertex 1.07085 0.749525 148.75
      vertex 1.12567 0.99476 154.75
      vertex 1.12567 0.99476 148.75
    endloop
  endfacet
  facet normal -0.975917 0.218143 0
    outer loop
      vertex 1.12567 0.99476 154.75
      vertex 1.07085 0.749525 148.75
      vertex 1.07085 0.749525 154.75
    endloop
  endfacet
  facet normal -0.987688 0.156434 0
    outer loop
      vertex 1.03154 0.501333 148.75
      vertex 1.07085 0.749525 154.75
      vertex 1.07085 0.749525 148.75
    endloop
  endfacet
  facet normal -0.987688 0.156434 0
    outer loop
      vertex 1.07085 0.749525 154.75
      vertex 1.03154 0.501333 148.75
      vertex 1.03154 0.501333 154.75
    endloop
  endfacet
  facet normal -0.995562 0.0941084 0
    outer loop
      vertex 1.00789 0.251162 148.75
      vertex 1.03154 0.501333 154.75
      vertex 1.03154 0.501333 148.75
    endloop
  endfacet
  facet normal -0.995562 0.0941084 0
    outer loop
      vertex 1.03154 0.501333 154.75
      vertex 1.00789 0.251162 148.75
      vertex 1.00789 0.251162 154.75
    endloop
  endfacet
  facet normal -0.999507 0.0314108 0
    outer loop
      vertex 1 4.89859e-16 148.75
      vertex 1.00789 0.251162 154.75
      vertex 1.00789 0.251162 148.75
    endloop
  endfacet
  facet normal -0.999507 0.0314108 0
    outer loop
      vertex 1.00789 0.251162 154.75
      vertex 1 4.89859e-16 148.75
      vertex 1 4.89859e-16 154.75
    endloop
  endfacet
  facet normal -0.999507 -0.0314108 0
    outer loop
      vertex 1.00789 -0.251162 148.75
      vertex 1 4.89859e-16 154.75
      vertex 1 4.89859e-16 148.75
    endloop
  endfacet
  facet normal -0.999507 -0.0314108 0
    outer loop
      vertex 1 4.89859e-16 154.75
      vertex 1.00789 -0.251162 148.75
      vertex 1.00789 -0.251162 154.75
    endloop
  endfacet
  facet normal -0.995562 -0.0941084 0
    outer loop
      vertex 1.03154 -0.501333 148.75
      vertex 1.00789 -0.251162 154.75
      vertex 1.00789 -0.251162 148.75
    endloop
  endfacet
  facet normal -0.995562 -0.0941084 0
    outer loop
      vertex 1.00789 -0.251162 154.75
      vertex 1.03154 -0.501333 148.75
      vertex 1.03154 -0.501333 154.75
    endloop
  endfacet
  facet normal -0.987688 -0.156434 0
    outer loop
      vertex 1.07085 -0.749525 148.75
      vertex 1.03154 -0.501333 154.75
      vertex 1.03154 -0.501333 148.75
    endloop
  endfacet
  facet normal -0.987688 -0.156434 0
    outer loop
      vertex 1.03154 -0.501333 154.75
      vertex 1.07085 -0.749525 148.75
      vertex 1.07085 -0.749525 154.75
    endloop
  endfacet
  facet normal -0.975917 -0.218143 0
    outer loop
      vertex 1.12567 -0.99476 148.75
      vertex 1.07085 -0.749525 154.75
      vertex 1.07085 -0.749525 148.75
    endloop
  endfacet
  facet normal -0.975917 -0.218143 0
    outer loop
      vertex 1.07085 -0.749525 154.75
      vertex 1.12567 -0.99476 148.75
      vertex 1.12567 -0.99476 154.75
    endloop
  endfacet
  facet normal -0.960294 -0.278991 0
    outer loop
      vertex 1.19577 -1.23607 148.75
      vertex 1.12567 -0.99476 154.75
      vertex 1.12567 -0.99476 148.75
    endloop
  endfacet
  facet normal -0.960294 -0.278991 0
    outer loop
      vertex 1.12567 -0.99476 154.75
      vertex 1.19577 -1.23607 148.75
      vertex 1.19577 -1.23607 154.75
    endloop
  endfacet
  facet normal -0.940881 -0.338738 0
    outer loop
      vertex 1.28089 -1.4725 148.75
      vertex 1.19577 -1.23607 154.75
      vertex 1.19577 -1.23607 148.75
    endloop
  endfacet
  facet normal -0.940881 -0.338738 0
    outer loop
      vertex 1.19577 -1.23607 154.75
      vertex 1.28089 -1.4725 148.75
      vertex 1.28089 -1.4725 154.75
    endloop
  endfacet
  facet normal -0.917755 -0.397148 0
    outer loop
      vertex 1.38069 -1.70312 148.75
      vertex 1.28089 -1.4725 154.75
      vertex 1.28089 -1.4725 148.75
    endloop
  endfacet
  facet normal -0.917755 -0.397148 0
    outer loop
      vertex 1.28089 -1.4725 154.75
      vertex 1.38069 -1.70312 148.75
      vertex 1.38069 -1.70312 154.75
    endloop
  endfacet
  facet normal -0.891007 -0.45399 0
    outer loop
      vertex 1.49477 -1.92701 148.75
      vertex 1.38069 -1.70312 154.75
      vertex 1.38069 -1.70312 148.75
    endloop
  endfacet
  facet normal -0.891007 -0.45399 0
    outer loop
      vertex 1.38069 -1.70312 154.75
      vertex 1.49477 -1.92701 148.75
      vertex 1.49477 -1.92701 154.75
    endloop
  endfacet
  facet normal -0.860742 -0.509041 0
    outer loop
      vertex 1.62269 -2.14331 148.75
      vertex 1.49477 -1.92701 154.75
      vertex 1.49477 -1.92701 148.75
    endloop
  endfacet
  facet normal -0.860742 -0.509041 0
    outer loop
      vertex 1.49477 -1.92701 154.75
      vertex 1.62269 -2.14331 148.75
      vertex 1.62269 -2.14331 154.75
    endloop
  endfacet
  facet normal -0.827081 -0.562083 0
    outer loop
      vertex 1.76393 -2.35114 148.75
      vertex 1.62269 -2.14331 154.75
      vertex 1.62269 -2.14331 148.75
    endloop
  endfacet
  facet normal -0.827081 -0.562083 0
    outer loop
      vertex 1.62269 -2.14331 154.75
      vertex 1.76393 -2.35114 148.75
      vertex 1.76393 -2.35114 154.75
    endloop
  endfacet
  facet normal -0.790155 -0.612907 0
    outer loop
      vertex 1.91795 -2.5497 148.75
      vertex 1.76393 -2.35114 154.75
      vertex 1.76393 -2.35114 148.75
    endloop
  endfacet
  facet normal -0.790155 -0.612907 0
    outer loop
      vertex 1.76393 -2.35114 154.75
      vertex 1.91795 -2.5497 148.75
      vertex 1.91795 -2.5497 154.75
    endloop
  endfacet
  facet normal -0.750111 -0.661312 0
    outer loop
      vertex 2.08413 -2.73819 148.75
      vertex 1.91795 -2.5497 154.75
      vertex 1.91795 -2.5497 148.75
    endloop
  endfacet
  facet normal -0.750111 -0.661312 0
    outer loop
      vertex 1.91795 -2.5497 154.75
      vertex 2.08413 -2.73819 148.75
      vertex 2.08413 -2.73819 154.75
    endloop
  endfacet
  facet normal -0.707107 -0.707107 0
    outer loop
      vertex 2.26181 -2.91587 148.75
      vertex 2.08413 -2.73819 154.75
      vertex 2.08413 -2.73819 148.75
    endloop
  endfacet
  facet normal -0.707107 -0.707107 0
    outer loop
      vertex 2.08413 -2.73819 154.75
      vertex 2.26181 -2.91587 148.75
      vertex 2.26181 -2.91587 154.75
    endloop
  endfacet
  facet normal -0.661312 -0.750111 0
    outer loop
      vertex 2.26181 -2.91587 148.75
      vertex 2.4503 -3.08205 154.75
      vertex 2.26181 -2.91587 154.75
    endloop
  endfacet
  facet normal -0.661312 -0.750111 -0
    outer loop
      vertex 2.4503 -3.08205 154.75
      vertex 2.26181 -2.91587 148.75
      vertex 2.4503 -3.08205 148.75
    endloop
  endfacet
  facet normal -0.612907 -0.790155 0
    outer loop
      vertex 2.4503 -3.08205 148.75
      vertex 2.64886 -3.23607 154.75
      vertex 2.4503 -3.08205 154.75
    endloop
  endfacet
  facet normal -0.612907 -0.790155 -0
    outer loop
      vertex 2.64886 -3.23607 154.75
      vertex 2.4503 -3.08205 148.75
      vertex 2.64886 -3.23607 148.75
    endloop
  endfacet
  facet normal -0.562083 -0.827081 0
    outer loop
      vertex 2.64886 -3.23607 148.75
      vertex 2.85669 -3.37731 154.75
      vertex 2.64886 -3.23607 154.75
    endloop
  endfacet
  facet normal -0.562083 -0.827081 -0
    outer loop
      vertex 2.85669 -3.37731 154.75
      vertex 2.64886 -3.23607 148.75
      vertex 2.85669 -3.37731 148.75
    endloop
  endfacet
  facet normal -0.509041 -0.860742 0
    outer loop
      vertex 2.85669 -3.37731 148.75
      vertex 3.07299 -3.50523 154.75
      vertex 2.85669 -3.37731 154.75
    endloop
  endfacet
  facet normal -0.509041 -0.860742 -0
    outer loop
      vertex 3.07299 -3.50523 154.75
      vertex 2.85669 -3.37731 148.75
      vertex 3.07299 -3.50523 148.75
    endloop
  endfacet
  facet normal -0.453991 -0.891006 0
    outer loop
      vertex 3.07299 -3.50523 148.75
      vertex 3.29688 -3.61931 154.75
      vertex 3.07299 -3.50523 154.75
    endloop
  endfacet
  facet normal -0.453991 -0.891006 -0
    outer loop
      vertex 3.29688 -3.61931 154.75
      vertex 3.07299 -3.50523 148.75
      vertex 3.29688 -3.61931 148.75
    endloop
  endfacet
  facet normal -0.397148 -0.917755 0
    outer loop
      vertex 3.29688 -3.61931 148.75
      vertex 3.5275 -3.71911 154.75
      vertex 3.29688 -3.61931 154.75
    endloop
  endfacet
  facet normal -0.397148 -0.917755 -0
    outer loop
      vertex 3.5275 -3.71911 154.75
      vertex 3.29688 -3.61931 148.75
      vertex 3.5275 -3.71911 148.75
    endloop
  endfacet
  facet normal -0.338738 -0.940881 0
    outer loop
      vertex 3.5275 -3.71911 148.75
      vertex 3.76393 -3.80423 154.75
      vertex 3.5275 -3.71911 154.75
    endloop
  endfacet
  facet normal -0.338738 -0.940881 -0
    outer loop
      vertex 3.76393 -3.80423 154.75
      vertex 3.5275 -3.71911 148.75
      vertex 3.76393 -3.80423 148.75
    endloop
  endfacet
  facet normal -0.278991 -0.960294 0
    outer loop
      vertex 3.76393 -3.80423 148.75
      vertex 4.00524 -3.87433 154.75
      vertex 3.76393 -3.80423 154.75
    endloop
  endfacet
  facet normal -0.278991 -0.960294 -0
    outer loop
      vertex 4.00524 -3.87433 154.75
      vertex 3.76393 -3.80423 148.75
      vertex 4.00524 -3.87433 148.75
    endloop
  endfacet
  facet normal -0.218143 -0.975917 0
    outer loop
      vertex 4.00524 -3.87433 148.75
      vertex 4.25047 -3.92915 154.75
      vertex 4.00524 -3.87433 154.75
    endloop
  endfacet
  facet normal -0.218143 -0.975917 -0
    outer loop
      vertex 4.25047 -3.92915 154.75
      vertex 4.00524 -3.87433 148.75
      vertex 4.25047 -3.92915 148.75
    endloop
  endfacet
  facet normal -0.156435 -0.987688 0
    outer loop
      vertex 4.25047 -3.92915 148.75
      vertex 4.49867 -3.96846 154.75
      vertex 4.25047 -3.92915 154.75
    endloop
  endfacet
  facet normal -0.156435 -0.987688 -0
    outer loop
      vertex 4.49867 -3.96846 154.75
      vertex 4.25047 -3.92915 148.75
      vertex 4.49867 -3.96846 148.75
    endloop
  endfacet
  facet normal -0.094108 -0.995562 0
    outer loop
      vertex 4.49867 -3.96846 148.75
      vertex 4.74884 -3.99211 154.75
      vertex 4.49867 -3.96846 154.75
    endloop
  endfacet
  facet normal -0.094108 -0.995562 -0
    outer loop
      vertex 4.74884 -3.99211 154.75
      vertex 4.49867 -3.96846 148.75
      vertex 4.74884 -3.99211 148.75
    endloop
  endfacet
  facet normal -0.0314108 -0.999507 0
    outer loop
      vertex 4.74884 -3.99211 148.75
      vertex 5 -4 154.75
      vertex 4.74884 -3.99211 154.75
    endloop
  endfacet
  facet normal -0.0314108 -0.999507 -0
    outer loop
      vertex 5 -4 154.75
      vertex 4.74884 -3.99211 148.75
      vertex 5 -4 148.75
    endloop
  endfacet
  facet normal 0.0314108 -0.999507 0
    outer loop
      vertex 5 -4 148.75
      vertex 5.25116 -3.99211 154.75
      vertex 5 -4 154.75
    endloop
  endfacet
  facet normal 0.0314108 -0.999507 0
    outer loop
      vertex 5.25116 -3.99211 154.75
      vertex 5 -4 148.75
      vertex 5.25116 -3.99211 148.75
    endloop
  endfacet
  facet normal 0.094108 -0.995562 0
    outer loop
      vertex 5.25116 -3.99211 148.75
      vertex 5.50133 -3.96846 154.75
      vertex 5.25116 -3.99211 154.75
    endloop
  endfacet
  facet normal 0.094108 -0.995562 0
    outer loop
      vertex 5.50133 -3.96846 154.75
      vertex 5.25116 -3.99211 148.75
      vertex 5.50133 -3.96846 148.75
    endloop
  endfacet
  facet normal 0.156435 -0.987688 0
    outer loop
      vertex 5.50133 -3.96846 148.75
      vertex 5.74953 -3.92915 154.75
      vertex 5.50133 -3.96846 154.75
    endloop
  endfacet
  facet normal 0.156435 -0.987688 0
    outer loop
      vertex 5.74953 -3.92915 154.75
      vertex 5.50133 -3.96846 148.75
      vertex 5.74953 -3.92915 148.75
    endloop
  endfacet
  facet normal 0.218143 -0.975917 0
    outer loop
      vertex 5.74953 -3.92915 148.75
      vertex 5.99476 -3.87433 154.75
      vertex 5.74953 -3.92915 154.75
    endloop
  endfacet
  facet normal 0.218143 -0.975917 0
    outer loop
      vertex 5.99476 -3.87433 154.75
      vertex 5.74953 -3.92915 148.75
      vertex 5.99476 -3.87433 148.75
    endloop
  endfacet
  facet normal 0.278991 -0.960294 0
    outer loop
      vertex 5.99476 -3.87433 148.75
      vertex 6.23607 -3.80423 154.75
      vertex 5.99476 -3.87433 154.75
    endloop
  endfacet
  facet normal 0.278991 -0.960294 0
    outer loop
      vertex 6.23607 -3.80423 154.75
      vertex 5.99476 -3.87433 148.75
      vertex 6.23607 -3.80423 148.75
    endloop
  endfacet
  facet normal 0.338738 -0.940881 0
    outer loop
      vertex 6.23607 -3.80423 148.75
      vertex 6.4725 -3.71911 154.75
      vertex 6.23607 -3.80423 154.75
    endloop
  endfacet
  facet normal 0.338738 -0.940881 0
    outer loop
      vertex 6.4725 -3.71911 154.75
      vertex 6.23607 -3.80423 148.75
      vertex 6.4725 -3.71911 148.75
    endloop
  endfacet
  facet normal 0.397148 -0.917755 0
    outer loop
      vertex 6.4725 -3.71911 148.75
      vertex 6.70312 -3.61931 154.75
      vertex 6.4725 -3.71911 154.75
    endloop
  endfacet
  facet normal 0.397148 -0.917755 0
    outer loop
      vertex 6.70312 -3.61931 154.75
      vertex 6.4725 -3.71911 148.75
      vertex 6.70312 -3.61931 148.75
    endloop
  endfacet
  facet normal 0.453991 -0.891006 0
    outer loop
      vertex 6.70312 -3.61931 148.75
      vertex 6.92701 -3.50523 154.75
      vertex 6.70312 -3.61931 154.75
    endloop
  endfacet
  facet normal 0.453991 -0.891006 0
    outer loop
      vertex 6.92701 -3.50523 154.75
      vertex 6.70312 -3.61931 148.75
      vertex 6.92701 -3.50523 148.75
    endloop
  endfacet
  facet normal 0.509041 -0.860742 0
    outer loop
      vertex 6.92701 -3.50523 148.75
      vertex 7.14331 -3.37731 154.75
      vertex 6.92701 -3.50523 154.75
    endloop
  endfacet
  facet normal 0.509041 -0.860742 0
    outer loop
      vertex 7.14331 -3.37731 154.75
      vertex 6.92701 -3.50523 148.75
      vertex 7.14331 -3.37731 148.75
    endloop
  endfacet
  facet normal 0.562083 -0.827081 0
    outer loop
      vertex 7.14331 -3.37731 148.75
      vertex 7.35114 -3.23607 154.75
      vertex 7.14331 -3.37731 154.75
    endloop
  endfacet
  facet normal 0.562083 -0.827081 0
    outer loop
      vertex 7.35114 -3.23607 154.75
      vertex 7.14331 -3.37731 148.75
      vertex 7.35114 -3.23607 148.75
    endloop
  endfacet
  facet normal 0.612907 -0.790155 0
    outer loop
      vertex 7.35114 -3.23607 148.75
      vertex 7.5497 -3.08205 154.75
      vertex 7.35114 -3.23607 154.75
    endloop
  endfacet
  facet normal 0.612907 -0.790155 0
    outer loop
      vertex 7.5497 -3.08205 154.75
      vertex 7.35114 -3.23607 148.75
      vertex 7.5497 -3.08205 148.75
    endloop
  endfacet
  facet normal 0.661312 -0.750111 0
    outer loop
      vertex 7.5497 -3.08205 148.75
      vertex 7.73819 -2.91587 154.75
      vertex 7.5497 -3.08205 154.75
    endloop
  endfacet
  facet normal 0.661312 -0.750111 0
    outer loop
      vertex 7.73819 -2.91587 154.75
      vertex 7.5497 -3.08205 148.75
      vertex 7.73819 -2.91587 148.75
    endloop
  endfacet
  facet normal 0.707106 -0.707107 0
    outer loop
      vertex 7.73819 -2.91587 148.75
      vertex 7.91587 -2.73819 154.75
      vertex 7.73819 -2.91587 154.75
    endloop
  endfacet
  facet normal 0.707106 -0.707107 0
    outer loop
      vertex 7.91587 -2.73819 154.75
      vertex 7.73819 -2.91587 148.75
      vertex 7.91587 -2.73819 148.75
    endloop
  endfacet
  facet normal 0.750111 -0.661312 0
    outer loop
      vertex 7.91587 -2.73819 154.75
      vertex 8.08205 -2.5497 148.75
      vertex 8.08205 -2.5497 154.75
    endloop
  endfacet
  facet normal 0.750111 -0.661312 0
    outer loop
      vertex 8.08205 -2.5497 148.75
      vertex 7.91587 -2.73819 154.75
      vertex 7.91587 -2.73819 148.75
    endloop
  endfacet
  facet normal 0.790156 -0.612906 0
    outer loop
      vertex 8.08205 -2.5497 154.75
      vertex 8.23607 -2.35114 148.75
      vertex 8.23607 -2.35114 154.75
    endloop
  endfacet
  facet normal 0.790156 -0.612906 0
    outer loop
      vertex 8.23607 -2.35114 148.75
      vertex 8.08205 -2.5497 154.75
      vertex 8.08205 -2.5497 148.75
    endloop
  endfacet
  facet normal 0.82708 -0.562084 0
    outer loop
      vertex 8.23607 -2.35114 154.75
      vertex 8.37731 -2.14331 148.75
      vertex 8.37731 -2.14331 154.75
    endloop
  endfacet
  facet normal 0.82708 -0.562084 0
    outer loop
      vertex 8.37731 -2.14331 148.75
      vertex 8.23607 -2.35114 154.75
      vertex 8.23607 -2.35114 148.75
    endloop
  endfacet
  facet normal 0.860741 -0.509042 0
    outer loop
      vertex 8.37731 -2.14331 154.75
      vertex 8.50523 -1.92701 148.75
      vertex 8.50523 -1.92701 154.75
    endloop
  endfacet
  facet normal 0.860741 -0.509042 0
    outer loop
      vertex 8.50523 -1.92701 148.75
      vertex 8.37731 -2.14331 154.75
      vertex 8.37731 -2.14331 148.75
    endloop
  endfacet
  facet normal 0.891007 -0.45399 0
    outer loop
      vertex 8.50523 -1.92701 154.75
      vertex 8.61931 -1.70312 148.75
      vertex 8.61931 -1.70312 154.75
    endloop
  endfacet
  facet normal 0.891007 -0.45399 0
    outer loop
      vertex 8.61931 -1.70312 148.75
      vertex 8.50523 -1.92701 154.75
      vertex 8.50523 -1.92701 148.75
    endloop
  endfacet
  facet normal 0.917755 -0.397146 0
    outer loop
      vertex 8.61931 -1.70312 154.75
      vertex 8.71911 -1.4725 148.75
      vertex 8.71911 -1.4725 154.75
    endloop
  endfacet
  facet normal 0.917755 -0.397146 0
    outer loop
      vertex 8.71911 -1.4725 148.75
      vertex 8.61931 -1.70312 154.75
      vertex 8.61931 -1.70312 148.75
    endloop
  endfacet
  facet normal 0.940881 -0.338738 0
    outer loop
      vertex 8.71911 -1.4725 154.75
      vertex 8.80423 -1.23607 148.75
      vertex 8.80423 -1.23607 154.75
    endloop
  endfacet
  facet normal 0.940881 -0.338738 0
    outer loop
      vertex 8.80423 -1.23607 148.75
      vertex 8.71911 -1.4725 154.75
      vertex 8.71911 -1.4725 148.75
    endloop
  endfacet
  facet normal 0.960294 -0.278991 0
    outer loop
      vertex 8.80423 -1.23607 154.75
      vertex 8.87433 -0.99476 148.75
      vertex 8.87433 -0.99476 154.75
    endloop
  endfacet
  facet normal 0.960294 -0.278991 0
    outer loop
      vertex 8.87433 -0.99476 148.75
      vertex 8.80423 -1.23607 154.75
      vertex 8.80423 -1.23607 148.75
    endloop
  endfacet
  facet normal 0.975917 -0.218143 0
    outer loop
      vertex 8.87433 -0.99476 154.75
      vertex 8.92915 -0.749525 148.75
      vertex 8.92915 -0.749525 154.75
    endloop
  endfacet
  facet normal 0.975917 -0.218143 0
    outer loop
      vertex 8.92915 -0.749525 148.75
      vertex 8.87433 -0.99476 154.75
      vertex 8.87433 -0.99476 148.75
    endloop
  endfacet
  facet normal 0.987688 -0.156437 0
    outer loop
      vertex 8.92915 -0.749525 154.75
      vertex 8.96846 -0.501333 148.75
      vertex 8.96846 -0.501333 154.75
    endloop
  endfacet
  facet normal 0.987688 -0.156437 0
    outer loop
      vertex 8.96846 -0.501333 148.75
      vertex 8.92915 -0.749525 154.75
      vertex 8.92915 -0.749525 148.75
    endloop
  endfacet
  facet normal 0.995562 -0.0941052 0
    outer loop
      vertex 8.96846 -0.501333 154.75
      vertex 8.99211 -0.251162 148.75
      vertex 8.99211 -0.251162 154.75
    endloop
  endfacet
  facet normal 0.995562 -0.0941052 0
    outer loop
      vertex 8.99211 -0.251162 148.75
      vertex 8.96846 -0.501333 154.75
      vertex 8.96846 -0.501333 148.75
    endloop
  endfacet
  facet normal 0.999507 -0.0314127 0
    outer loop
      vertex 8.99211 -0.251162 154.75
      vertex 9 0 148.75
      vertex 9 0 154.75
    endloop
  endfacet
  facet normal 0.999507 -0.0314127 0
    outer loop
      vertex 9 0 148.75
      vertex 8.99211 -0.251162 154.75
      vertex 8.99211 -0.251162 148.75
    endloop
  endfacet
  facet normal 0 0 -1
    outer loop
      vertex 8.99211 -0.251162 148.75
      vertex 8.99211 0.251162 148.75
      vertex 9 0 148.75
    endloop
  endfacet
  facet normal 0 0 -1
    outer loop
      vertex 8.96846 -0.501333 148.75
      vertex 8.99211 0.251162 148.75
      vertex 8.99211 -0.251162 148.75
    endloop
  endfacet
  facet normal 0 0 -1
    outer loop
      vertex 8.96846 -0.501333 148.75
      vertex 8.96846 0.501333 148.75
      vertex 8.99211 0.251162 148.75
    endloop
  endfacet
  facet normal 0 0 -1
    outer loop
      vertex 8.92915 -0.749525 148.75
      vertex 8.96846 0.501333 148.75
      vertex 8.96846 -0.501333 148.75
    endloop
  endfacet
  facet normal 0 0 -1
    outer loop
      vertex 8.92915 -0.749525 148.75
      vertex 8.92915 0.749525 148.75
      vertex 8.96846 0.501333 148.75
    endloop
  endfacet
  facet normal 0 0 -1
    outer loop
      vertex 8.87433 -0.99476 148.75
      vertex 8.92915 0.749525 148.75
      vertex 8.92915 -0.749525 148.75
    endloop
  endfacet
  facet normal 0 0 -1
    outer loop
      vertex 8.87433 -0.99476 148.75
      vertex 8.87433 0.99476 148.75
      vertex 8.92915 0.749525 148.75
    endloop
  endfacet
  facet normal 0 0 -1
    outer loop
      vertex 8.80423 -1.23607 148.75
      vertex 8.87433 0.99476 148.75
      vertex 8.87433 -0.99476 148.75
    endloop
  endfacet
  facet normal 0 0 -1
    outer loop
      vertex 8.80423 -1.23607 148.75
      vertex 8.80423 1.23607 148.75
      vertex 8.87433 0.99476 148.75
    endloop
  endfacet
  facet normal 0 0 -1
    outer loop
      vertex 8.71911 -1.4725 148.75
      vertex 8.80423 1.23607 148.75
      vertex 8.80423 -1.23607 148.75
    endloop
  endfacet
  facet normal 0 0 -1
    outer loop
      vertex 8.71911 -1.4725 148.75
      vertex 8.71911 1.4725 148.75
      vertex 8.80423 1.23607 148.75
    endloop
  endfacet
  facet normal 0 0 -1
    outer loop
      vertex 8.61931 -1.70312 148.75
      vertex 8.71911 1.4725 148.75
      vertex 8.71911 -1.4725 148.75
    endloop
  endfacet
  facet normal 0 0 -1
    outer loop
      vertex 8.61931 -1.70312 148.75
      vertex 8.61931 1.70312 148.75
      vertex 8.71911 1.4725 148.75
    endloop
  endfacet
  facet normal 0 0 -1
    outer loop
      vertex 8.50523 -1.92701 148.75
      vertex 8.61931 1.70312 148.75
      vertex 8.61931 -1.70312 148.75
    endloop
  endfacet
  facet normal 0 0 -1
    outer loop
      vertex 8.50523 -1.92701 148.75
      vertex 8.50523 1.92701 148.75
      vertex 8.61931 1.70312 148.75
    endloop
  endfacet
  facet normal 0 0 -1
    outer loop
      vertex 8.37731 -2.14331 148.75
      vertex 8.50523 1.92701 148.75
      vertex 8.50523 -1.92701 148.75
    endloop
  endfacet
  facet normal 0 0 -1
    outer loop
      vertex 8.37731 -2.14331 148.75
      vertex 8.37731 2.14331 148.75
      vertex 8.50523 1.92701 148.75
    endloop
  endfacet
  facet normal 0 0 -1
    outer loop
      vertex 8.23607 -2.35114 148.75
      vertex 8.37731 2.14331 148.75
      vertex 8.37731 -2.14331 148.75
    endloop
  endfacet
  facet normal 0 0 -1
    outer loop
      vertex 8.23607 -2.35114 148.75
      vertex 8.23607 2.35114 148.75
      vertex 8.37731 2.14331 148.75
    endloop
  endfacet
  facet normal 0 0 -1
    outer loop
      vertex 8.08205 -2.5497 148.75
      vertex 8.23607 2.35114 148.75
      vertex 8.23607 -2.35114 148.75
    endloop
  endfacet
  facet normal 0 0 -1
    outer loop
      vertex 8.08205 -2.5497 148.75
      vertex 8.08205 2.5497 148.75
      vertex 8.23607 2.35114 148.75
    endloop
  endfacet
  facet normal 0 0 -1
    outer loop
      vertex 7.91587 -2.73819 148.75
      vertex 8.08205 2.5497 148.75
      vertex 8.08205 -2.5497 148.75
    endloop
  endfacet
  facet normal 0 0 -1
    outer loop
      vertex 7.91587 -2.73819 148.75
      vertex 7.91587 2.73819 148.75
      vertex 8.08205 2.5497 148.75
    endloop
  endfacet
  facet normal 0 0 -1
    outer loop
      vertex 7.73819 -2.91587 148.75
      vertex 7.91587 2.73819 148.75
      vertex 7.91587 -2.73819 148.75
    endloop
  endfacet
  facet normal 0 0 -1
    outer loop
      vertex 7.73819 -2.91587 148.75
      vertex 7.73819 2.91587 148.75
      vertex 7.91587 2.73819 148.75
    endloop
  endfacet
  facet normal 0 0 -1
    outer loop
      vertex 7.5497 -3.08205 148.75
      vertex 7.73819 2.91587 148.75
      vertex 7.73819 -2.91587 148.75
    endloop
  endfacet
  facet normal 0 0 -1
    outer loop
      vertex 7.5497 -3.08205 148.75
      vertex 7.5497 3.08205 148.75
      vertex 7.73819 2.91587 148.75
    endloop
  endfacet
  facet normal 0 0 -1
    outer loop
      vertex 7.35114 -3.23607 148.75
      vertex 7.5497 3.08205 148.75
      vertex 7.5497 -3.08205 148.75
    endloop
  endfacet
  facet normal 0 0 -1
    outer loop
      vertex 7.35114 -3.23607 148.75
      vertex 7.35114 3.23607 148.75
      vertex 7.5497 3.08205 148.75
    endloop
  endfacet
  facet normal 0 0 -1
    outer loop
      vertex 7.14331 -3.37731 148.75
      vertex 7.35114 3.23607 148.75
      vertex 7.35114 -3.23607 148.75
    endloop
  endfacet
  facet normal 0 0 -1
    outer loop
      vertex 7.14331 -3.37731 148.75
      vertex 7.14331 3.37731 148.75
      vertex 7.35114 3.23607 148.75
    endloop
  endfacet
  facet normal 0 0 -1
    outer loop
      vertex 6.92701 -3.50523 148.75
      vertex 7.14331 3.37731 148.75
      vertex 7.14331 -3.37731 148.75
    endloop
  endfacet
  facet normal 0 0 -1
    outer loop
      vertex 6.92701 -3.50523 148.75
      vertex 6.92701 3.50523 148.75
      vertex 7.14331 3.37731 148.75
    endloop
  endfacet
  facet normal 0 0 -1
    outer loop
      vertex 6.70312 -3.61931 148.75
      vertex 6.92701 3.50523 148.75
      vertex 6.92701 -3.50523 148.75
    endloop
  endfacet
  facet normal 0 0 -1
    outer loop
      vertex 6.70312 -3.61931 148.75
      vertex 6.70312 3.61931 148.75
      vertex 6.92701 3.50523 148.75
    endloop
  endfacet
  facet normal 0 0 -1
    outer loop
      vertex 6.4725 -3.71911 148.75
      vertex 6.70312 3.61931 148.75
      vertex 6.70312 -3.61931 148.75
    endloop
  endfacet
  facet normal 0 0 -1
    outer loop
      vertex 6.4725 -3.71911 148.75
      vertex 6.4725 3.71911 148.75
      vertex 6.70312 3.61931 148.75
    endloop
  endfacet
  facet normal 0 0 -1
    outer loop
      vertex 6.23607 -3.80423 148.75
      vertex 6.4725 3.71911 148.75
      vertex 6.4725 -3.71911 148.75
    endloop
  endfacet
  facet normal 0 0 -1
    outer loop
      vertex 6.23607 -3.80423 148.75
      vertex 6.23607 3.80423 148.75
      vertex 6.4725 3.71911 148.75
    endloop
  endfacet
  facet normal 0 0 -1
    outer loop
      vertex 5.99476 -3.87433 148.75
      vertex 6.23607 3.80423 148.75
      vertex 6.23607 -3.80423 148.75
    endloop
  endfacet
  facet normal 0 0 -1
    outer loop
      vertex 5.99476 -3.87433 148.75
      vertex 5.99476 3.87433 148.75
      vertex 6.23607 3.80423 148.75
    endloop
  endfacet
  facet normal 0 0 -1
    outer loop
      vertex 5.74953 -3.92915 148.75
      vertex 5.99476 3.87433 148.75
      vertex 5.99476 -3.87433 148.75
    endloop
  endfacet
  facet normal 0 0 -1
    outer loop
      vertex 5.74953 -3.92915 148.75
      vertex 5.74953 3.92915 148.75
      vertex 5.99476 3.87433 148.75
    endloop
  endfacet
  facet normal 0 0 -1
    outer loop
      vertex 5.50133 -3.96846 148.75
      vertex 5.74953 3.92915 148.75
      vertex 5.74953 -3.92915 148.75
    endloop
  endfacet
  facet normal 0 0 -1
    outer loop
      vertex 5.50133 -3.96846 148.75
      vertex 5.50133 3.96846 148.75
      vertex 5.74953 3.92915 148.75
    endloop
  endfacet
  facet normal 0 0 -1
    outer loop
      vertex 5.25116 -3.99211 148.75
      vertex 5.50133 3.96846 148.75
      vertex 5.50133 -3.96846 148.75
    endloop
  endfacet
  facet normal 0 0 -1
    outer loop
      vertex 5.25116 -3.99211 148.75
      vertex 5.25116 3.99211 148.75
      vertex 5.50133 3.96846 148.75
    endloop
  endfacet
  facet normal 0 0 -1
    outer loop
      vertex 5 -4 148.75
      vertex 5.25116 3.99211 148.75
      vertex 5.25116 -3.99211 148.75
    endloop
  endfacet
  facet normal 0 0 -1
    outer loop
      vertex 5 -4 148.75
      vertex 5 4 148.75
      vertex 5.25116 3.99211 148.75
    endloop
  endfacet
  facet normal 0 0 -1
    outer loop
      vertex 4.74884 -3.99211 148.75
      vertex 5 4 148.75
      vertex 5 -4 148.75
    endloop
  endfacet
  facet normal 0 0 -1
    outer loop
      vertex 4.74884 -3.99211 148.75
      vertex 4.74884 3.99211 148.75
      vertex 5 4 148.75
    endloop
  endfacet
  facet normal 0 0 -1
    outer loop
      vertex 4.49867 -3.96846 148.75
      vertex 4.74884 3.99211 148.75
      vertex 4.74884 -3.99211 148.75
    endloop
  endfacet
  facet normal 0 0 -1
    outer loop
      vertex 4.49867 -3.96846 148.75
      vertex 4.49867 3.96846 148.75
      vertex 4.74884 3.99211 148.75
    endloop
  endfacet
  facet normal 0 0 -1
    outer loop
      vertex 4.25047 -3.92915 148.75
      vertex 4.49867 3.96846 148.75
      vertex 4.49867 -3.96846 148.75
    endloop
  endfacet
  facet normal 0 0 -1
    outer loop
      vertex 4.25047 -3.92915 148.75
      vertex 4.25047 3.92915 148.75
      vertex 4.49867 3.96846 148.75
    endloop
  endfacet
  facet normal 0 0 -1
    outer loop
      vertex 4.00524 -3.87433 148.75
      vertex 4.25047 3.92915 148.75
      vertex 4.25047 -3.92915 148.75
    endloop
  endfacet
  facet normal 0 0 -1
    outer loop
      vertex 4.00524 -3.87433 148.75
      vertex 4.00524 3.87433 148.75
      vertex 4.25047 3.92915 148.75
    endloop
  endfacet
  facet normal 0 0 -1
    outer loop
      vertex 3.76393 -3.80423 148.75
      vertex 4.00524 3.87433 148.75
      vertex 4.00524 -3.87433 148.75
    endloop
  endfacet
  facet normal 0 0 -1
    outer loop
      vertex 3.76393 -3.80423 148.75
      vertex 3.76393 3.80423 148.75
      vertex 4.00524 3.87433 148.75
    endloop
  endfacet
  facet normal 0 0 -1
    outer loop
      vertex 3.5275 -3.71911 148.75
      vertex 3.76393 3.80423 148.75
      vertex 3.76393 -3.80423 148.75
    endloop
  endfacet
  facet normal 0 0 -1
    outer loop
      vertex 3.5275 -3.71911 148.75
      vertex 3.5275 3.71911 148.75
      vertex 3.76393 3.80423 148.75
    endloop
  endfacet
  facet normal 0 0 -1
    outer loop
      vertex 3.29688 -3.61931 148.75
      vertex 3.5275 3.71911 148.75
      vertex 3.5275 -3.71911 148.75
    endloop
  endfacet
  facet normal 0 0 -1
    outer loop
      vertex 3.29688 -3.61931 148.75
      vertex 3.29688 3.61931 148.75
      vertex 3.5275 3.71911 148.75
    endloop
  endfacet
  facet normal 0 0 -1
    outer loop
      vertex 3.07299 -3.50523 148.75
      vertex 3.29688 3.61931 148.75
      vertex 3.29688 -3.61931 148.75
    endloop
  endfacet
  facet normal 0 0 -1
    outer loop
      vertex 3.07299 -3.50523 148.75
      vertex 3.07299 3.50523 148.75
      vertex 3.29688 3.61931 148.75
    endloop
  endfacet
  facet normal 0 0 -1
    outer loop
      vertex 2.85669 -3.37731 148.75
      vertex 3.07299 3.50523 148.75
      vertex 3.07299 -3.50523 148.75
    endloop
  endfacet
  facet normal 0 0 -1
    outer loop
      vertex 2.85669 -3.37731 148.75
      vertex 2.85669 3.37731 148.75
      vertex 3.07299 3.50523 148.75
    endloop
  endfacet
  facet normal 0 0 -1
    outer loop
      vertex 2.64886 -3.23607 148.75
      vertex 2.85669 3.37731 148.75
      vertex 2.85669 -3.37731 148.75
    endloop
  endfacet
  facet normal 0 0 -1
    outer loop
      vertex 2.64886 -3.23607 148.75
      vertex 2.64886 3.23607 148.75
      vertex 2.85669 3.37731 148.75
    endloop
  endfacet
  facet normal 0 0 -1
    outer loop
      vertex 2.4503 -3.08205 148.75
      vertex 2.64886 3.23607 148.75
      vertex 2.64886 -3.23607 148.75
    endloop
  endfacet
  facet normal 0 0 -1
    outer loop
      vertex 2.4503 -3.08205 148.75
      vertex 2.4503 3.08205 148.75
      vertex 2.64886 3.23607 148.75
    endloop
  endfacet
  facet normal 0 0 -1
    outer loop
      vertex 2.26181 -2.91587 148.75
      vertex 2.4503 3.08205 148.75
      vertex 2.4503 -3.08205 148.75
    endloop
  endfacet
  facet normal 0 0 -1
    outer loop
      vertex 2.26181 -2.91587 148.75
      vertex 2.26181 2.91587 148.75
      vertex 2.4503 3.08205 148.75
    endloop
  endfacet
  facet normal 0 0 -1
    outer loop
      vertex 2.08413 -2.73819 148.75
      vertex 2.26181 2.91587 148.75
      vertex 2.26181 -2.91587 148.75
    endloop
  endfacet
  facet normal 0 0 -1
    outer loop
      vertex 2.08413 -2.73819 148.75
      vertex 2.08413 2.73819 148.75
      vertex 2.26181 2.91587 148.75
    endloop
  endfacet
  facet normal 0 0 -1
    outer loop
      vertex 1.91795 -2.5497 148.75
      vertex 2.08413 2.73819 148.75
      vertex 2.08413 -2.73819 148.75
    endloop
  endfacet
  facet normal 0 0 -1
    outer loop
      vertex 1.91795 -2.5497 148.75
      vertex 1.91795 2.5497 148.75
      vertex 2.08413 2.73819 148.75
    endloop
  endfacet
  facet normal 0 0 -1
    outer loop
      vertex 1.76393 -2.35114 148.75
      vertex 1.91795 2.5497 148.75
      vertex 1.91795 -2.5497 148.75
    endloop
  endfacet
  facet normal 0 0 -1
    outer loop
      vertex 1.76393 -2.35114 148.75
      vertex 1.76393 2.35114 148.75
      vertex 1.91795 2.5497 148.75
    endloop
  endfacet
  facet normal 0 0 -1
    outer loop
      vertex 1.62269 -2.14331 148.75
      vertex 1.76393 2.35114 148.75
      vertex 1.76393 -2.35114 148.75
    endloop
  endfacet
  facet normal 0 0 -1
    outer loop
      vertex 1.62269 -2.14331 148.75
      vertex 1.62269 2.14331 148.75
      vertex 1.76393 2.35114 148.75
    endloop
  endfacet
  facet normal 0 0 -1
    outer loop
      vertex 1.49477 -1.92701 148.75
      vertex 1.62269 2.14331 148.75
      vertex 1.62269 -2.14331 148.75
    endloop
  endfacet
  facet normal 0 0 -1
    outer loop
      vertex 1.49477 -1.92701 148.75
      vertex 1.49477 1.92701 148.75
      vertex 1.62269 2.14331 148.75
    endloop
  endfacet
  facet normal 0 0 -1
    outer loop
      vertex 1.38069 -1.70312 148.75
      vertex 1.49477 1.92701 148.75
      vertex 1.49477 -1.92701 148.75
    endloop
  endfacet
  facet normal 0 0 -1
    outer loop
      vertex 1.38069 -1.70312 148.75
      vertex 1.38069 1.70312 148.75
      vertex 1.49477 1.92701 148.75
    endloop
  endfacet
  facet normal 0 0 -1
    outer loop
      vertex 1.28089 -1.4725 148.75
      vertex 1.38069 1.70312 148.75
      vertex 1.38069 -1.70312 148.75
    endloop
  endfacet
  facet normal 0 0 -1
    outer loop
      vertex 1.28089 -1.4725 148.75
      vertex 1.28089 1.4725 148.75
      vertex 1.38069 1.70312 148.75
    endloop
  endfacet
  facet normal 0 0 -1
    outer loop
      vertex 1.19577 -1.23607 148.75
      vertex 1.28089 1.4725 148.75
      vertex 1.28089 -1.4725 148.75
    endloop
  endfacet
  facet normal 0 0 -1
    outer loop
      vertex 1.19577 -1.23607 148.75
      vertex 1.19577 1.23607 148.75
      vertex 1.28089 1.4725 148.75
    endloop
  endfacet
  facet normal 0 0 -1
    outer loop
      vertex 1.12567 -0.99476 148.75
      vertex 1.19577 1.23607 148.75
      vertex 1.19577 -1.23607 148.75
    endloop
  endfacet
  facet normal 0 0 -1
    outer loop
      vertex 1.12567 -0.99476 148.75
      vertex 1.12567 0.99476 148.75
      vertex 1.19577 1.23607 148.75
    endloop
  endfacet
  facet normal 0 0 -1
    outer loop
      vertex 1.07085 -0.749525 148.75
      vertex 1.12567 0.99476 148.75
      vertex 1.12567 -0.99476 148.75
    endloop
  endfacet
  facet normal 0 0 -1
    outer loop
      vertex 1.07085 -0.749525 148.75
      vertex 1.07085 0.749525 148.75
      vertex 1.12567 0.99476 148.75
    endloop
  endfacet
  facet normal 0 0 -1
    outer loop
      vertex 1.03154 -0.501333 148.75
      vertex 1.07085 0.749525 148.75
      vertex 1.07085 -0.749525 148.75
    endloop
  endfacet
  facet normal 0 0 -1
    outer loop
      vertex 1.03154 -0.501333 148.75
      vertex 1.03154 0.501333 148.75
      vertex 1.07085 0.749525 148.75
    endloop
  endfacet
  facet normal 0 0 -1
    outer loop
      vertex 1.00789 -0.251162 148.75
      vertex 1.03154 0.501333 148.75
      vertex 1.03154 -0.501333 148.75
    endloop
  endfacet
  facet normal 0 0 -1
    outer loop
      vertex 1.00789 -0.251162 148.75
      vertex 1.00789 0.251162 148.75
      vertex 1.03154 0.501333 148.75
    endloop
  endfacet
  facet normal 0 -0 -1
    outer loop
      vertex 1.00789 0.251162 148.75
      vertex 1.00789 -0.251162 148.75
      vertex 1 4.89859e-16 148.75
    endloop
  endfacet
  facet normal 0 0 1
    outer loop
      vertex 8.99211 0.251162 154.75
      vertex 8.99211 -0.251162 154.75
      vertex 9 0 154.75
    endloop
  endfacet
  facet normal 0 0 1
    outer loop
      vertex 8.96846 0.501333 154.75
      vertex 8.99211 -0.251162 154.75
      vertex 8.99211 0.251162 154.75
    endloop
  endfacet
  facet normal 0 0 1
    outer loop
      vertex 8.96846 0.501333 154.75
      vertex 8.96846 -0.501333 154.75
      vertex 8.99211 -0.251162 154.75
    endloop
  endfacet
  facet normal 0 0 1
    outer loop
      vertex 8.92915 0.749525 154.75
      vertex 8.96846 -0.501333 154.75
      vertex 8.96846 0.501333 154.75
    endloop
  endfacet
  facet normal 0 0 1
    outer loop
      vertex 8.92915 0.749525 154.75
      vertex 8.92915 -0.749525 154.75
      vertex 8.96846 -0.501333 154.75
    endloop
  endfacet
  facet normal 0 0 1
    outer loop
      vertex 8.87433 0.99476 154.75
      vertex 8.92915 -0.749525 154.75
      vertex 8.92915 0.749525 154.75
    endloop
  endfacet
  facet normal 0 0 1
    outer loop
      vertex 8.87433 0.99476 154.75
      vertex 8.87433 -0.99476 154.75
      vertex 8.92915 -0.749525 154.75
    endloop
  endfacet
  facet normal 0 0 1
    outer loop
      vertex 8.80423 1.23607 154.75
      vertex 8.87433 -0.99476 154.75
      vertex 8.87433 0.99476 154.75
    endloop
  endfacet
  facet normal 0 0 1
    outer loop
      vertex 8.80423 1.23607 154.75
      vertex 8.80423 -1.23607 154.75
      vertex 8.87433 -0.99476 154.75
    endloop
  endfacet
  facet normal 0 0 1
    outer loop
      vertex 8.71911 1.4725 154.75
      vertex 8.80423 -1.23607 154.75
      vertex 8.80423 1.23607 154.75
    endloop
  endfacet
  facet normal 0 0 1
    outer loop
      vertex 8.71911 1.4725 154.75
      vertex 8.71911 -1.4725 154.75
      vertex 8.80423 -1.23607 154.75
    endloop
  endfacet
  facet normal 0 0 1
    outer loop
      vertex 8.61931 1.70312 154.75
      vertex 8.71911 -1.4725 154.75
      vertex 8.71911 1.4725 154.75
    endloop
  endfacet
  facet normal 0 0 1
    outer loop
      vertex 8.61931 1.70312 154.75
      vertex 8.61931 -1.70312 154.75
      vertex 8.71911 -1.4725 154.75
    endloop
  endfacet
  facet normal 0 0 1
    outer loop
      vertex 8.50523 1.92701 154.75
      vertex 8.61931 -1.70312 154.75
      vertex 8.61931 1.70312 154.75
    endloop
  endfacet
  facet normal 0 0 1
    outer loop
      vertex 8.50523 1.92701 154.75
      vertex 8.50523 -1.92701 154.75
      vertex 8.61931 -1.70312 154.75
    endloop
  endfacet
  facet normal 0 0 1
    outer loop
      vertex 8.37731 2.14331 154.75
      vertex 8.50523 -1.92701 154.75
      vertex 8.50523 1.92701 154.75
    endloop
  endfacet
  facet normal 0 0 1
    outer loop
      vertex 8.37731 2.14331 154.75
      vertex 8.37731 -2.14331 154.75
      vertex 8.50523 -1.92701 154.75
    endloop
  endfacet
  facet normal 0 0 1
    outer loop
      vertex 8.23607 2.35114 154.75
      vertex 8.37731 -2.14331 154.75
      vertex 8.37731 2.14331 154.75
    endloop
  endfacet
  facet normal 0 0 1
    outer loop
      vertex 8.23607 2.35114 154.75
      vertex 8.23607 -2.35114 154.75
      vertex 8.37731 -2.14331 154.75
    endloop
  endfacet
  facet normal 0 0 1
    outer loop
      vertex 8.08205 2.5497 154.75
      vertex 8.23607 -2.35114 154.75
      vertex 8.23607 2.35114 154.75
    endloop
  endfacet
  facet normal 0 0 1
    outer loop
      vertex 8.08205 2.5497 154.75
      vertex 8.08205 -2.5497 154.75
      vertex 8.23607 -2.35114 154.75
    endloop
  endfacet
  facet normal 0 0 1
    outer loop
      vertex 7.91587 2.73819 154.75
      vertex 8.08205 -2.5497 154.75
      vertex 8.08205 2.5497 154.75
    endloop
  endfacet
  facet normal 0 0 1
    outer loop
      vertex 7.91587 2.73819 154.75
      vertex 7.91587 -2.73819 154.75
      vertex 8.08205 -2.5497 154.75
    endloop
  endfacet
  facet normal 0 0 1
    outer loop
      vertex 7.73819 2.91587 154.75
      vertex 7.91587 -2.73819 154.75
      vertex 7.91587 2.73819 154.75
    endloop
  endfacet
  facet normal 0 0 1
    outer loop
      vertex 7.73819 2.91587 154.75
      vertex 7.73819 -2.91587 154.75
      vertex 7.91587 -2.73819 154.75
    endloop
  endfacet
  facet normal 0 0 1
    outer loop
      vertex 7.5497 3.08205 154.75
      vertex 7.73819 -2.91587 154.75
      vertex 7.73819 2.91587 154.75
    endloop
  endfacet
  facet normal 0 0 1
    outer loop
      vertex 7.5497 3.08205 154.75
      vertex 7.5497 -3.08205 154.75
      vertex 7.73819 -2.91587 154.75
    endloop
  endfacet
  facet normal 0 0 1
    outer loop
      vertex 7.35114 3.23607 154.75
      vertex 7.5497 -3.08205 154.75
      vertex 7.5497 3.08205 154.75
    endloop
  endfacet
  facet normal 0 0 1
    outer loop
      vertex 7.35114 3.23607 154.75
      vertex 7.35114 -3.23607 154.75
      vertex 7.5497 -3.08205 154.75
    endloop
  endfacet
  facet normal 0 0 1
    outer loop
      vertex 7.14331 3.37731 154.75
      vertex 7.35114 -3.23607 154.75
      vertex 7.35114 3.23607 154.75
    endloop
  endfacet
  facet normal 0 0 1
    outer loop
      vertex 7.14331 3.37731 154.75
      vertex 7.14331 -3.37731 154.75
      vertex 7.35114 -3.23607 154.75
    endloop
  endfacet
  facet normal 0 0 1
    outer loop
      vertex 6.92701 3.50523 154.75
      vertex 7.14331 -3.37731 154.75
      vertex 7.14331 3.37731 154.75
    endloop
  endfacet
  facet normal 0 0 1
    outer loop
      vertex 6.92701 3.50523 154.75
      vertex 6.92701 -3.50523 154.75
      vertex 7.14331 -3.37731 154.75
    endloop
  endfacet
  facet normal 0 0 1
    outer loop
      vertex 6.70312 3.61931 154.75
      vertex 6.92701 -3.50523 154.75
      vertex 6.92701 3.50523 154.75
    endloop
  endfacet
  facet normal 0 0 1
    outer loop
      vertex 6.70312 3.61931 154.75
      vertex 6.70312 -3.61931 154.75
      vertex 6.92701 -3.50523 154.75
    endloop
  endfacet
  facet normal 0 0 1
    outer loop
      vertex 6.4725 3.71911 154.75
      vertex 6.70312 -3.61931 154.75
      vertex 6.70312 3.61931 154.75
    endloop
  endfacet
  facet normal 0 0 1
    outer loop
      vertex 6.4725 3.71911 154.75
      vertex 6.4725 -3.71911 154.75
      vertex 6.70312 -3.61931 154.75
    endloop
  endfacet
  facet normal 0 0 1
    outer loop
      vertex 6.23607 3.80423 154.75
      vertex 6.4725 -3.71911 154.75
      vertex 6.4725 3.71911 154.75
    endloop
  endfacet
  facet normal 0 0 1
    outer loop
      vertex 6.23607 3.80423 154.75
      vertex 6.23607 -3.80423 154.75
      vertex 6.4725 -3.71911 154.75
    endloop
  endfacet
  facet normal 0 0 1
    outer loop
      vertex 5.99476 3.87433 154.75
      vertex 6.23607 -3.80423 154.75
      vertex 6.23607 3.80423 154.75
    endloop
  endfacet
  facet normal 0 0 1
    outer loop
      vertex 5.99476 3.87433 154.75
      vertex 5.99476 -3.87433 154.75
      vertex 6.23607 -3.80423 154.75
    endloop
  endfacet
  facet normal 0 0 1
    outer loop
      vertex 5.74953 3.92915 154.75
      vertex 5.99476 -3.87433 154.75
      vertex 5.99476 3.87433 154.75
    endloop
  endfacet
  facet normal 0 0 1
    outer loop
      vertex 5.74953 3.92915 154.75
      vertex 5.74953 -3.92915 154.75
      vertex 5.99476 -3.87433 154.75
    endloop
  endfacet
  facet normal 0 0 1
    outer loop
      vertex 5.50133 3.96846 154.75
      vertex 5.74953 -3.92915 154.75
      vertex 5.74953 3.92915 154.75
    endloop
  endfacet
  facet normal 0 0 1
    outer loop
      vertex 5.50133 3.96846 154.75
      vertex 5.50133 -3.96846 154.75
      vertex 5.74953 -3.92915 154.75
    endloop
  endfacet
  facet normal 0 0 1
    outer loop
      vertex 5.25116 3.99211 154.75
      vertex 5.50133 -3.96846 154.75
      vertex 5.50133 3.96846 154.75
    endloop
  endfacet
  facet normal 0 0 1
    outer loop
      vertex 5.25116 3.99211 154.75
      vertex 5.25116 -3.99211 154.75
      vertex 5.50133 -3.96846 154.75
    endloop
  endfacet
  facet normal 0 0 1
    outer loop
      vertex 5 4 154.75
      vertex 5.25116 -3.99211 154.75
      vertex 5.25116 3.99211 154.75
    endloop
  endfacet
  facet normal 0 0 1
    outer loop
      vertex 5 4 154.75
      vertex 5 -4 154.75
      vertex 5.25116 -3.99211 154.75
    endloop
  endfacet
  facet normal -0 0 1
    outer loop
      vertex 4.74884 3.99211 154.75
      vertex 5 -4 154.75
      vertex 5 4 154.75
    endloop
  endfacet
  facet normal 0 0 1
    outer loop
      vertex 4.74884 3.99211 154.75
      vertex 4.74884 -3.99211 154.75
      vertex 5 -4 154.75
    endloop
  endfacet
  facet normal -0 0 1
    outer loop
      vertex 4.49867 3.96846 154.75
      vertex 4.74884 -3.99211 154.75
      vertex 4.74884 3.99211 154.75
    endloop
  endfacet
  facet normal 0 0 1
    outer loop
      vertex 4.49867 3.96846 154.75
      vertex 4.49867 -3.96846 154.75
      vertex 4.74884 -3.99211 154.75
    endloop
  endfacet
  facet normal -0 0 1
    outer loop
      vertex 4.25047 3.92915 154.75
      vertex 4.49867 -3.96846 154.75
      vertex 4.49867 3.96846 154.75
    endloop
  endfacet
  facet normal 0 0 1
    outer loop
      vertex 4.25047 3.92915 154.75
      vertex 4.25047 -3.92915 154.75
      vertex 4.49867 -3.96846 154.75
    endloop
  endfacet
  facet normal -0 0 1
    outer loop
      vertex 4.00524 3.87433 154.75
      vertex 4.25047 -3.92915 154.75
      vertex 4.25047 3.92915 154.75
    endloop
  endfacet
  facet normal 0 0 1
    outer loop
      vertex 4.00524 3.87433 154.75
      vertex 4.00524 -3.87433 154.75
      vertex 4.25047 -3.92915 154.75
    endloop
  endfacet
  facet normal -0 0 1
    outer loop
      vertex 3.76393 3.80423 154.75
      vertex 4.00524 -3.87433 154.75
      vertex 4.00524 3.87433 154.75
    endloop
  endfacet
  facet normal 0 0 1
    outer loop
      vertex 3.76393 3.80423 154.75
      vertex 3.76393 -3.80423 154.75
      vertex 4.00524 -3.87433 154.75
    endloop
  endfacet
  facet normal -0 0 1
    outer loop
      vertex 3.5275 3.71911 154.75
      vertex 3.76393 -3.80423 154.75
      vertex 3.76393 3.80423 154.75
    endloop
  endfacet
  facet normal 0 0 1
    outer loop
      vertex 3.5275 3.71911 154.75
      vertex 3.5275 -3.71911 154.75
      vertex 3.76393 -3.80423 154.75
    endloop
  endfacet
  facet normal -0 0 1
    outer loop
      vertex 3.29688 3.61931 154.75
      vertex 3.5275 -3.71911 154.75
      vertex 3.5275 3.71911 154.75
    endloop
  endfacet
  facet normal 0 0 1
    outer loop
      vertex 3.29688 3.61931 154.75
      vertex 3.29688 -3.61931 154.75
      vertex 3.5275 -3.71911 154.75
    endloop
  endfacet
  facet normal -0 0 1
    outer loop
      vertex 3.07299 3.50523 154.75
      vertex 3.29688 -3.61931 154.75
      vertex 3.29688 3.61931 154.75
    endloop
  endfacet
  facet normal 0 0 1
    outer loop
      vertex 3.07299 3.50523 154.75
      vertex 3.07299 -3.50523 154.75
      vertex 3.29688 -3.61931 154.75
    endloop
  endfacet
  facet normal -0 0 1
    outer loop
      vertex 2.85669 3.37731 154.75
      vertex 3.07299 -3.50523 154.75
      vertex 3.07299 3.50523 154.75
    endloop
  endfacet
  facet normal 0 0 1
    outer loop
      vertex 2.85669 3.37731 154.75
      vertex 2.85669 -3.37731 154.75
      vertex 3.07299 -3.50523 154.75
    endloop
  endfacet
  facet normal -0 0 1
    outer loop
      vertex 2.64886 3.23607 154.75
      vertex 2.85669 -3.37731 154.75
      vertex 2.85669 3.37731 154.75
    endloop
  endfacet
  facet normal 0 0 1
    outer loop
      vertex 2.64886 3.23607 154.75
      vertex 2.64886 -3.23607 154.75
      vertex 2.85669 -3.37731 154.75
    endloop
  endfacet
  facet normal -0 0 1
    outer loop
      vertex 2.4503 3.08205 154.75
      vertex 2.64886 -3.23607 154.75
      vertex 2.64886 3.23607 154.75
    endloop
  endfacet
  facet normal 0 0 1
    outer loop
      vertex 2.4503 3.08205 154.75
      vertex 2.4503 -3.08205 154.75
      vertex 2.64886 -3.23607 154.75
    endloop
  endfacet
  facet normal -0 0 1
    outer loop
      vertex 2.26181 2.91587 154.75
      vertex 2.4503 -3.08205 154.75
      vertex 2.4503 3.08205 154.75
    endloop
  endfacet
  facet normal 0 0 1
    outer loop
      vertex 2.26181 2.91587 154.75
      vertex 2.26181 -2.91587 154.75
      vertex 2.4503 -3.08205 154.75
    endloop
  endfacet
  facet normal -0 0 1
    outer loop
      vertex 2.08413 2.73819 154.75
      vertex 2.26181 -2.91587 154.75
      vertex 2.26181 2.91587 154.75
    endloop
  endfacet
  facet normal 0 0 1
    outer loop
      vertex 2.08413 2.73819 154.75
      vertex 2.08413 -2.73819 154.75
      vertex 2.26181 -2.91587 154.75
    endloop
  endfacet
  facet normal -0 0 1
    outer loop
      vertex 1.91795 2.5497 154.75
      vertex 2.08413 -2.73819 154.75
      vertex 2.08413 2.73819 154.75
    endloop
  endfacet
  facet normal 0 0 1
    outer loop
      vertex 1.91795 2.5497 154.75
      vertex 1.91795 -2.5497 154.75
      vertex 2.08413 -2.73819 154.75
    endloop
  endfacet
  facet normal -0 0 1
    outer loop
      vertex 1.76393 2.35114 154.75
      vertex 1.91795 -2.5497 154.75
      vertex 1.91795 2.5497 154.75
    endloop
  endfacet
  facet normal 0 0 1
    outer loop
      vertex 1.76393 2.35114 154.75
      vertex 1.76393 -2.35114 154.75
      vertex 1.91795 -2.5497 154.75
    endloop
  endfacet
  facet normal -0 0 1
    outer loop
      vertex 1.62269 2.14331 154.75
      vertex 1.76393 -2.35114 154.75
      vertex 1.76393 2.35114 154.75
    endloop
  endfacet
  facet normal 0 0 1
    outer loop
      vertex 1.62269 2.14331 154.75
      vertex 1.62269 -2.14331 154.75
      vertex 1.76393 -2.35114 154.75
    endloop
  endfacet
  facet normal -0 0 1
    outer loop
      vertex 1.49477 1.92701 154.75
      vertex 1.62269 -2.14331 154.75
      vertex 1.62269 2.14331 154.75
    endloop
  endfacet
  facet normal 0 0 1
    outer loop
      vertex 1.49477 1.92701 154.75
      vertex 1.49477 -1.92701 154.75
      vertex 1.62269 -2.14331 154.75
    endloop
  endfacet
  facet normal -0 0 1
    outer loop
      vertex 1.38069 1.70312 154.75
      vertex 1.49477 -1.92701 154.75
      vertex 1.49477 1.92701 154.75
    endloop
  endfacet
  facet normal 0 0 1
    outer loop
      vertex 1.38069 1.70312 154.75
      vertex 1.38069 -1.70312 154.75
      vertex 1.49477 -1.92701 154.75
    endloop
  endfacet
  facet normal -0 0 1
    outer loop
      vertex 1.28089 1.4725 154.75
      vertex 1.38069 -1.70312 154.75
      vertex 1.38069 1.70312 154.75
    endloop
  endfacet
  facet normal 0 0 1
    outer loop
      vertex 1.28089 1.4725 154.75
      vertex 1.28089 -1.4725 154.75
      vertex 1.38069 -1.70312 154.75
    endloop
  endfacet
  facet normal -0 0 1
    outer loop
      vertex 1.19577 1.23607 154.75
      vertex 1.28089 -1.4725 154.75
      vertex 1.28089 1.4725 154.75
    endloop
  endfacet
  facet normal 0 0 1
    outer loop
      vertex 1.19577 1.23607 154.75
      vertex 1.19577 -1.23607 154.75
      vertex 1.28089 -1.4725 154.75
    endloop
  endfacet
  facet normal -0 0 1
    outer loop
      vertex 1.12567 0.99476 154.75
      vertex 1.19577 -1.23607 154.75
      vertex 1.19577 1.23607 154.75
    endloop
  endfacet
  facet normal 0 0 1
    outer loop
      vertex 1.12567 0.99476 154.75
      vertex 1.12567 -0.99476 154.75
      vertex 1.19577 -1.23607 154.75
    endloop
  endfacet
  facet normal -0 0 1
    outer loop
      vertex 1.07085 0.749525 154.75
      vertex 1.12567 -0.99476 154.75
      vertex 1.12567 0.99476 154.75
    endloop
  endfacet
  facet normal 0 0 1
    outer loop
      vertex 1.07085 0.749525 154.75
      vertex 1.07085 -0.749525 154.75
      vertex 1.12567 -0.99476 154.75
    endloop
  endfacet
  facet normal -0 0 1
    outer loop
      vertex 1.03154 0.501333 154.75
      vertex 1.07085 -0.749525 154.75
      vertex 1.07085 0.749525 154.75
    endloop
  endfacet
  facet normal 0 0 1
    outer loop
      vertex 1.03154 0.501333 154.75
      vertex 1.03154 -0.501333 154.75
      vertex 1.07085 -0.749525 154.75
    endloop
  endfacet
  facet normal -0 0 1
    outer loop
      vertex 1.00789 0.251162 154.75
      vertex 1.03154 -0.501333 154.75
      vertex 1.03154 0.501333 154.75
    endloop
  endfacet
  facet normal 0 0 1
    outer loop
      vertex 1.00789 0.251162 154.75
      vertex 1.00789 -0.251162 154.75
      vertex 1.03154 -0.501333 154.75
    endloop
  endfacet
  facet normal 0 -0 1
    outer loop
      vertex 1.00789 -0.251162 154.75
      vertex 1.00789 0.251162 154.75
      vertex 1 4.89859e-16 154.75
    endloop
  endfacet
endsolid OpenSCAD_Model
