solid OpenSCAD_Model
  facet normal -1 0 0
    outer loop
      vertex 22.6 7.2 163.24
      vertex 22.6 10 183.94
      vertex 22.6 10 163.24
    endloop
  endfacet
  facet normal -1 -0 0
    outer loop
      vertex 22.6 10 183.94
      vertex 22.6 7.2 163.24
      vertex 22.6 7.2 183.94
    endloop
  endfacet
  facet normal -0 0 1
    outer loop
      vertex 22.6 10 183.94
      vertex 25.3 7.2 183.94
      vertex 25.3 10 183.94
    endloop
  endfacet
  facet normal 0 0 1
    outer loop
      vertex 25.3 7.2 183.94
      vertex 22.6 10 183.94
      vertex 22.6 7.2 183.94
    endloop
  endfacet
  facet normal 1 -0 0
    outer loop
      vertex 25.3 7.2 183.94
      vertex 25.3 10 165.94
      vertex 25.3 10 183.94
    endloop
  endfacet
  facet normal 1 0 0
    outer loop
      vertex 25.3 10 165.94
      vertex 25.3 7.2 183.94
      vertex 25.3 7.2 165.94
    endloop
  endfacet
  facet normal 0 1 0
    outer loop
      vertex 30.3 10 165.94
      vertex 30.3 10 163.24
      vertex 25.3 10 165.94
    endloop
  endfacet
  facet normal 0 1 -0
    outer loop
      vertex 25.3 10 165.94
      vertex 22.6 10 183.94
      vertex 25.3 10 183.94
    endloop
  endfacet
  facet normal 0 1 0
    outer loop
      vertex 25.3 10 165.94
      vertex 22.6 10 163.24
      vertex 22.6 10 183.94
    endloop
  endfacet
  facet normal 0 1 0
    outer loop
      vertex 22.6 10 163.24
      vertex 25.3 10 165.94
      vertex 30.3 10 163.24
    endloop
  endfacet
  facet normal 0 0 -1
    outer loop
      vertex 22.6 7.2 163.24
      vertex 30.3 10 163.24
      vertex 30.3 7.2 163.24
    endloop
  endfacet
  facet normal -0 0 -1
    outer loop
      vertex 30.3 10 163.24
      vertex 22.6 7.2 163.24
      vertex 22.6 10 163.24
    endloop
  endfacet
  facet normal 0 -1 0
    outer loop
      vertex 22.6 7.2 183.94
      vertex 25.3 7.2 165.94
      vertex 25.3 7.2 183.94
    endloop
  endfacet
  facet normal 0 -1 0
    outer loop
      vertex 22.6 7.2 163.24
      vertex 25.3 7.2 165.94
      vertex 22.6 7.2 183.94
    endloop
  endfacet
  facet normal 0 -1 0
    outer loop
      vertex 30.3 7.2 163.24
      vertex 25.3 7.2 165.94
      vertex 22.6 7.2 163.24
    endloop
  endfacet
  facet normal 0 -1 0
    outer loop
      vertex 25.3 7.2 165.94
      vertex 30.3 7.2 163.24
      vertex 30.3 7.2 165.94
    endloop
  endfacet
  facet normal -0 0 1
    outer loop
      vertex 25.3 10 165.94
      vertex 30.3 7.2 165.94
      vertex 30.3 10 165.94
    endloop
  endfacet
  facet normal 0 0 1
    outer loop
      vertex 30.3 7.2 165.94
      vertex 25.3 10 165.94
      vertex 25.3 7.2 165.94
    endloop
  endfacet
  facet normal 1 -0 0
    outer loop
      vertex 30.3 7.2 165.94
      vertex 30.3 10 163.24
      vertex 30.3 10 165.94
    endloop
  endfacet
  facet normal 1 0 0
    outer loop
      vertex 30.3 10 163.24
      vertex 30.3 7.2 165.94
      vertex 30.3 7.2 163.24
    endloop
  endfacet
  facet normal -1 0 0
    outer loop
      vertex 22.6 -10 163.24
      vertex 22.6 -7.2 183.94
      vertex 22.6 -7.2 163.24
    endloop
  endfacet
  facet normal -1 -0 0
    outer loop
      vertex 22.6 -7.2 183.94
      vertex 22.6 -10 163.24
      vertex 22.6 -10 183.94
    endloop
  endfacet
  facet normal -0 0 1
    outer loop
      vertex 22.6 -7.2 183.94
      vertex 25.3 -10 183.94
      vertex 25.3 -7.2 183.94
    endloop
  endfacet
  facet normal 0 0 1
    outer loop
      vertex 25.3 -10 183.94
      vertex 22.6 -7.2 183.94
      vertex 22.6 -10 183.94
    endloop
  endfacet
  facet normal 1 -0 0
    outer loop
      vertex 25.3 -10 183.94
      vertex 25.3 -7.2 165.94
      vertex 25.3 -7.2 183.94
    endloop
  endfacet
  facet normal 1 0 0
    outer loop
      vertex 25.3 -7.2 165.94
      vertex 25.3 -10 183.94
      vertex 25.3 -10 165.94
    endloop
  endfacet
  facet normal 0 1 0
    outer loop
      vertex 30.3 -7.2 165.94
      vertex 30.3 -7.2 163.24
      vertex 25.3 -7.2 165.94
    endloop
  endfacet
  facet normal 0 1 -0
    outer loop
      vertex 25.3 -7.2 165.94
      vertex 22.6 -7.2 183.94
      vertex 25.3 -7.2 183.94
    endloop
  endfacet
  facet normal 0 1 0
    outer loop
      vertex 25.3 -7.2 165.94
      vertex 22.6 -7.2 163.24
      vertex 22.6 -7.2 183.94
    endloop
  endfacet
  facet normal 0 1 0
    outer loop
      vertex 22.6 -7.2 163.24
      vertex 25.3 -7.2 165.94
      vertex 30.3 -7.2 163.24
    endloop
  endfacet
  facet normal 0 0 -1
    outer loop
      vertex 22.6 -10 163.24
      vertex 30.3 -7.2 163.24
      vertex 30.3 -10 163.24
    endloop
  endfacet
  facet normal -0 0 -1
    outer loop
      vertex 30.3 -7.2 163.24
      vertex 22.6 -10 163.24
      vertex 22.6 -7.2 163.24
    endloop
  endfacet
  facet normal 0 -1 0
    outer loop
      vertex 22.6 -10 183.94
      vertex 25.3 -10 165.94
      vertex 25.3 -10 183.94
    endloop
  endfacet
  facet normal 0 -1 0
    outer loop
      vertex 22.6 -10 163.24
      vertex 25.3 -10 165.94
      vertex 22.6 -10 183.94
    endloop
  endfacet
  facet normal 0 -1 0
    outer loop
      vertex 30.3 -10 163.24
      vertex 25.3 -10 165.94
      vertex 22.6 -10 163.24
    endloop
  endfacet
  facet normal 0 -1 0
    outer loop
      vertex 25.3 -10 165.94
      vertex 30.3 -10 163.24
      vertex 30.3 -10 165.94
    endloop
  endfacet
  facet normal -0 0 1
    outer loop
      vertex 25.3 -7.2 165.94
      vertex 30.3 -10 165.94
      vertex 30.3 -7.2 165.94
    endloop
  endfacet
  facet normal 0 0 1
    outer loop
      vertex 30.3 -10 165.94
      vertex 25.3 -7.2 165.94
      vertex 25.3 -10 165.94
    endloop
  endfacet
  facet normal 1 -0 0
    outer loop
      vertex 30.3 -10 165.94
      vertex 30.3 -7.2 163.24
      vertex 30.3 -7.2 165.94
    endloop
  endfacet
  facet normal 1 0 0
    outer loop
      vertex 30.3 -7.2 163.24
      vertex 30.3 -10 165.94
      vertex 30.3 -10 163.24
    endloop
  endfacet
endsolid OpenSCAD_Model
