solid OpenSCAD_Model
  facet normal -1 0 0
    outer loop
      vertex 22.6 7.6 163.24
      vertex 22.6 9.6 183.24
      vertex 22.6 9.6 163.24
    endloop
  endfacet
  facet normal -1 -0 0
    outer loop
      vertex 22.6 9.6 183.24
      vertex 22.6 7.6 163.24
      vertex 22.6 7.6 183.24
    endloop
  endfacet
  facet normal -0 0 1
    outer loop
      vertex 22.6 9.6 183.24
      vertex 24.6 7.6 183.24
      vertex 24.6 9.6 183.24
    endloop
  endfacet
  facet normal 0 0 1
    outer loop
      vertex 24.6 7.6 183.24
      vertex 22.6 9.6 183.24
      vertex 22.6 7.6 183.24
    endloop
  endfacet
  facet normal 1 -0 0
    outer loop
      vertex 24.6 7.6 183.24
      vertex 24.6 9.6 165.24
      vertex 24.6 9.6 183.24
    endloop
  endfacet
  facet normal 1 0 0
    outer loop
      vertex 24.6 9.6 165.24
      vertex 24.6 7.6 183.24
      vertex 24.6 7.6 165.24
    endloop
  endfacet
  facet normal 0 1 0
    outer loop
      vertex 29.6 9.6 165.24
      vertex 29.6 9.6 163.24
      vertex 24.6 9.6 165.24
    endloop
  endfacet
  facet normal 0 1 -0
    outer loop
      vertex 24.6 9.6 165.24
      vertex 22.6 9.6 183.24
      vertex 24.6 9.6 183.24
    endloop
  endfacet
  facet normal 0 1 0
    outer loop
      vertex 24.6 9.6 165.24
      vertex 22.6 9.6 163.24
      vertex 22.6 9.6 183.24
    endloop
  endfacet
  facet normal 0 1 0
    outer loop
      vertex 22.6 9.6 163.24
      vertex 24.6 9.6 165.24
      vertex 29.6 9.6 163.24
    endloop
  endfacet
  facet normal 0 0 -1
    outer loop
      vertex 22.6 7.6 163.24
      vertex 29.6 9.6 163.24
      vertex 29.6 7.6 163.24
    endloop
  endfacet
  facet normal -0 0 -1
    outer loop
      vertex 29.6 9.6 163.24
      vertex 22.6 7.6 163.24
      vertex 22.6 9.6 163.24
    endloop
  endfacet
  facet normal 0 -1 0
    outer loop
      vertex 22.6 7.6 183.24
      vertex 24.6 7.6 165.24
      vertex 24.6 7.6 183.24
    endloop
  endfacet
  facet normal 0 -1 0
    outer loop
      vertex 22.6 7.6 163.24
      vertex 24.6 7.6 165.24
      vertex 22.6 7.6 183.24
    endloop
  endfacet
  facet normal 0 -1 0
    outer loop
      vertex 29.6 7.6 163.24
      vertex 24.6 7.6 165.24
      vertex 22.6 7.6 163.24
    endloop
  endfacet
  facet normal 0 -1 0
    outer loop
      vertex 24.6 7.6 165.24
      vertex 29.6 7.6 163.24
      vertex 29.6 7.6 165.24
    endloop
  endfacet
  facet normal -0 0 1
    outer loop
      vertex 24.6 9.6 165.24
      vertex 29.6 7.6 165.24
      vertex 29.6 9.6 165.24
    endloop
  endfacet
  facet normal 0 0 1
    outer loop
      vertex 29.6 7.6 165.24
      vertex 24.6 9.6 165.24
      vertex 24.6 7.6 165.24
    endloop
  endfacet
  facet normal 1 -0 0
    outer loop
      vertex 29.6 7.6 165.24
      vertex 29.6 9.6 163.24
      vertex 29.6 9.6 165.24
    endloop
  endfacet
  facet normal 1 0 0
    outer loop
      vertex 29.6 9.6 163.24
      vertex 29.6 7.6 165.24
      vertex 29.6 7.6 163.24
    endloop
  endfacet
  facet normal -1 0 0
    outer loop
      vertex 22.6 -9.6 163.24
      vertex 22.6 -7.6 183.24
      vertex 22.6 -7.6 163.24
    endloop
  endfacet
  facet normal -1 -0 0
    outer loop
      vertex 22.6 -7.6 183.24
      vertex 22.6 -9.6 163.24
      vertex 22.6 -9.6 183.24
    endloop
  endfacet
  facet normal -0 0 1
    outer loop
      vertex 22.6 -7.6 183.24
      vertex 24.6 -9.6 183.24
      vertex 24.6 -7.6 183.24
    endloop
  endfacet
  facet normal 0 0 1
    outer loop
      vertex 24.6 -9.6 183.24
      vertex 22.6 -7.6 183.24
      vertex 22.6 -9.6 183.24
    endloop
  endfacet
  facet normal 1 -0 0
    outer loop
      vertex 24.6 -9.6 183.24
      vertex 24.6 -7.6 165.24
      vertex 24.6 -7.6 183.24
    endloop
  endfacet
  facet normal 1 0 0
    outer loop
      vertex 24.6 -7.6 165.24
      vertex 24.6 -9.6 183.24
      vertex 24.6 -9.6 165.24
    endloop
  endfacet
  facet normal 0 1 0
    outer loop
      vertex 29.6 -7.6 165.24
      vertex 29.6 -7.6 163.24
      vertex 24.6 -7.6 165.24
    endloop
  endfacet
  facet normal 0 1 -0
    outer loop
      vertex 24.6 -7.6 165.24
      vertex 22.6 -7.6 183.24
      vertex 24.6 -7.6 183.24
    endloop
  endfacet
  facet normal 0 1 0
    outer loop
      vertex 24.6 -7.6 165.24
      vertex 22.6 -7.6 163.24
      vertex 22.6 -7.6 183.24
    endloop
  endfacet
  facet normal 0 1 0
    outer loop
      vertex 22.6 -7.6 163.24
      vertex 24.6 -7.6 165.24
      vertex 29.6 -7.6 163.24
    endloop
  endfacet
  facet normal 0 0 -1
    outer loop
      vertex 22.6 -9.6 163.24
      vertex 29.6 -7.6 163.24
      vertex 29.6 -9.6 163.24
    endloop
  endfacet
  facet normal -0 0 -1
    outer loop
      vertex 29.6 -7.6 163.24
      vertex 22.6 -9.6 163.24
      vertex 22.6 -7.6 163.24
    endloop
  endfacet
  facet normal 0 -1 0
    outer loop
      vertex 22.6 -9.6 183.24
      vertex 24.6 -9.6 165.24
      vertex 24.6 -9.6 183.24
    endloop
  endfacet
  facet normal 0 -1 0
    outer loop
      vertex 22.6 -9.6 163.24
      vertex 24.6 -9.6 165.24
      vertex 22.6 -9.6 183.24
    endloop
  endfacet
  facet normal 0 -1 0
    outer loop
      vertex 29.6 -9.6 163.24
      vertex 24.6 -9.6 165.24
      vertex 22.6 -9.6 163.24
    endloop
  endfacet
  facet normal 0 -1 0
    outer loop
      vertex 24.6 -9.6 165.24
      vertex 29.6 -9.6 163.24
      vertex 29.6 -9.6 165.24
    endloop
  endfacet
  facet normal -0 0 1
    outer loop
      vertex 24.6 -7.6 165.24
      vertex 29.6 -9.6 165.24
      vertex 29.6 -7.6 165.24
    endloop
  endfacet
  facet normal 0 0 1
    outer loop
      vertex 29.6 -9.6 165.24
      vertex 24.6 -7.6 165.24
      vertex 24.6 -9.6 165.24
    endloop
  endfacet
  facet normal 1 -0 0
    outer loop
      vertex 29.6 -9.6 165.24
      vertex 29.6 -7.6 163.24
      vertex 29.6 -7.6 165.24
    endloop
  endfacet
  facet normal 1 0 0
    outer loop
      vertex 29.6 -7.6 163.24
      vertex 29.6 -9.6 165.24
      vertex 29.6 -9.6 163.24
    endloop
  endfacet
endsolid OpenSCAD_Model
