solid OpenSCAD_Model
  facet normal -0 0 1
    outer loop
      vertex 5.52099 20 30
      vertex 165.521 -20 30
      vertex 165.521 20 30
    endloop
  endfacet
  facet normal 0 0 1
    outer loop
      vertex 165.521 -20 30
      vertex 5.52099 20 30
      vertex 5.52099 -20 30
    endloop
  endfacet
  facet normal 0 0 -1
    outer loop
      vertex 5.52099 -20 -10
      vertex 165.521 20 -10
      vertex 165.521 -20 -10
    endloop
  endfacet
  facet normal -0 0 -1
    outer loop
      vertex 165.521 20 -10
      vertex 5.52099 -20 -10
      vertex 5.52099 20 -10
    endloop
  endfacet
  facet normal 0 -1 0
    outer loop
      vertex 5.52099 -20 -10
      vertex 165.521 -20 30
      vertex 5.52099 -20 30
    endloop
  endfacet
  facet normal 0 -1 -0
    outer loop
      vertex 165.521 -20 30
      vertex 5.52099 -20 -10
      vertex 165.521 -20 -10
    endloop
  endfacet
  facet normal 1 -0 0
    outer loop
      vertex 165.521 -20 30
      vertex 165.521 20 -10
      vertex 165.521 20 30
    endloop
  endfacet
  facet normal 1 0 0
    outer loop
      vertex 165.521 20 -10
      vertex 165.521 -20 30
      vertex 165.521 -20 -10
    endloop
  endfacet
  facet normal 0 1 -0
    outer loop
      vertex 165.521 20 -10
      vertex 5.52099 20 30
      vertex 165.521 20 30
    endloop
  endfacet
  facet normal 0 1 0
    outer loop
      vertex 5.52099 20 30
      vertex 165.521 20 -10
      vertex 5.52099 20 -10
    endloop
  endfacet
  facet normal -1 0 0
    outer loop
      vertex 5.52099 -20 -10
      vertex 5.52099 20 30
      vertex 5.52099 20 -10
    endloop
  endfacet
  facet normal -1 -0 0
    outer loop
      vertex 5.52099 20 30
      vertex 5.52099 -20 -10
      vertex 5.52099 -20 30
    endloop
  endfacet
endsolid OpenSCAD_Model
