solid OpenSCAD_Model
  facet normal 0.999507 0.0314103 0
    outer loop
      vertex 3.6 0 9
      vertex 3.5929 0.226046 -1
      vertex 3.5929 0.226046 9
    endloop
  endfacet
  facet normal 0.999507 0.0314103 0
    outer loop
      vertex 3.5929 0.226046 -1
      vertex 3.6 0 9
      vertex 3.6 0 -1
    endloop
  endfacet
  facet normal 0.995562 0.0941087 0
    outer loop
      vertex 3.5929 0.226046 9
      vertex 3.57161 0.4512 -1
      vertex 3.57161 0.4512 9
    endloop
  endfacet
  facet normal 0.995562 0.0941087 0
    outer loop
      vertex 3.57161 0.4512 -1
      vertex 3.5929 0.226046 9
      vertex 3.5929 0.226046 -1
    endloop
  endfacet
  facet normal 0.987688 0.156434 0
    outer loop
      vertex 3.57161 0.4512 9
      vertex 3.53623 0.674573 -1
      vertex 3.53623 0.674573 9
    endloop
  endfacet
  facet normal 0.987688 0.156434 0
    outer loop
      vertex 3.53623 0.674573 -1
      vertex 3.57161 0.4512 9
      vertex 3.57161 0.4512 -1
    endloop
  endfacet
  facet normal 0.975917 0.218143 0
    outer loop
      vertex 3.53623 0.674573 9
      vertex 3.4869 0.895284 -1
      vertex 3.4869 0.895284 9
    endloop
  endfacet
  facet normal 0.975917 0.218143 0
    outer loop
      vertex 3.4869 0.895284 -1
      vertex 3.53623 0.674573 9
      vertex 3.53623 0.674573 -1
    endloop
  endfacet
  facet normal 0.960294 0.278991 0
    outer loop
      vertex 3.4869 0.895284 9
      vertex 3.4238 1.11246 -1
      vertex 3.4238 1.11246 9
    endloop
  endfacet
  facet normal 0.960294 0.278991 0
    outer loop
      vertex 3.4238 1.11246 -1
      vertex 3.4869 0.895284 9
      vertex 3.4869 0.895284 -1
    endloop
  endfacet
  facet normal 0.940881 0.338738 0
    outer loop
      vertex 3.4238 1.11246 9
      vertex 3.3472 1.32525 -1
      vertex 3.3472 1.32525 9
    endloop
  endfacet
  facet normal 0.940881 0.338738 0
    outer loop
      vertex 3.3472 1.32525 -1
      vertex 3.4238 1.11246 9
      vertex 3.4238 1.11246 -1
    endloop
  endfacet
  facet normal 0.917755 0.397148 0
    outer loop
      vertex 3.3472 1.32525 9
      vertex 3.25738 1.53281 -1
      vertex 3.25738 1.53281 9
    endloop
  endfacet
  facet normal 0.917755 0.397148 0
    outer loop
      vertex 3.25738 1.53281 -1
      vertex 3.3472 1.32525 9
      vertex 3.3472 1.32525 -1
    endloop
  endfacet
  facet normal 0.891007 0.45399 0
    outer loop
      vertex 3.25738 1.53281 9
      vertex 3.1547 1.73431 -1
      vertex 3.1547 1.73431 9
    endloop
  endfacet
  facet normal 0.891007 0.45399 0
    outer loop
      vertex 3.1547 1.73431 -1
      vertex 3.25738 1.53281 9
      vertex 3.25738 1.53281 -1
    endloop
  endfacet
  facet normal 0.860742 0.509042 0
    outer loop
      vertex 3.1547 1.73431 9
      vertex 3.03958 1.92898 -1
      vertex 3.03958 1.92898 9
    endloop
  endfacet
  facet normal 0.860742 0.509042 0
    outer loop
      vertex 3.03958 1.92898 -1
      vertex 3.1547 1.73431 9
      vertex 3.1547 1.73431 -1
    endloop
  endfacet
  facet normal 0.827081 0.562083 0
    outer loop
      vertex 3.03958 1.92898 9
      vertex 2.91246 2.11603 -1
      vertex 2.91246 2.11603 9
    endloop
  endfacet
  facet normal 0.827081 0.562083 0
    outer loop
      vertex 2.91246 2.11603 -1
      vertex 3.03958 1.92898 9
      vertex 3.03958 1.92898 -1
    endloop
  endfacet
  facet normal 0.790155 0.612908 0
    outer loop
      vertex 2.91246 2.11603 9
      vertex 2.77385 2.29473 -1
      vertex 2.77385 2.29473 9
    endloop
  endfacet
  facet normal 0.790155 0.612908 0
    outer loop
      vertex 2.77385 2.29473 -1
      vertex 2.91246 2.11603 9
      vertex 2.91246 2.11603 -1
    endloop
  endfacet
  facet normal 0.750111 0.661312 0
    outer loop
      vertex 2.77385 2.29473 9
      vertex 2.62429 2.46437 -1
      vertex 2.62429 2.46437 9
    endloop
  endfacet
  facet normal 0.750111 0.661312 0
    outer loop
      vertex 2.62429 2.46437 -1
      vertex 2.77385 2.29473 9
      vertex 2.77385 2.29473 -1
    endloop
  endfacet
  facet normal 0.707107 0.707107 0
    outer loop
      vertex 2.62429 2.46437 9
      vertex 2.46437 2.62429 -1
      vertex 2.46437 2.62429 9
    endloop
  endfacet
  facet normal 0.707107 0.707107 0
    outer loop
      vertex 2.46437 2.62429 -1
      vertex 2.62429 2.46437 9
      vertex 2.62429 2.46437 -1
    endloop
  endfacet
  facet normal 0.661312 0.750111 -0
    outer loop
      vertex 2.46437 2.62429 -1
      vertex 2.29473 2.77385 9
      vertex 2.46437 2.62429 9
    endloop
  endfacet
  facet normal 0.661312 0.750111 0
    outer loop
      vertex 2.29473 2.77385 9
      vertex 2.46437 2.62429 -1
      vertex 2.29473 2.77385 -1
    endloop
  endfacet
  facet normal 0.612908 0.790155 -0
    outer loop
      vertex 2.29473 2.77385 -1
      vertex 2.11603 2.91246 9
      vertex 2.29473 2.77385 9
    endloop
  endfacet
  facet normal 0.612908 0.790155 0
    outer loop
      vertex 2.11603 2.91246 9
      vertex 2.29473 2.77385 -1
      vertex 2.11603 2.91246 -1
    endloop
  endfacet
  facet normal 0.562083 0.827081 -0
    outer loop
      vertex 2.11603 2.91246 -1
      vertex 1.92898 3.03958 9
      vertex 2.11603 2.91246 9
    endloop
  endfacet
  facet normal 0.562083 0.827081 0
    outer loop
      vertex 1.92898 3.03958 9
      vertex 2.11603 2.91246 -1
      vertex 1.92898 3.03958 -1
    endloop
  endfacet
  facet normal 0.509042 0.860742 -0
    outer loop
      vertex 1.92898 3.03958 -1
      vertex 1.73431 3.1547 9
      vertex 1.92898 3.03958 9
    endloop
  endfacet
  facet normal 0.509042 0.860742 0
    outer loop
      vertex 1.73431 3.1547 9
      vertex 1.92898 3.03958 -1
      vertex 1.73431 3.1547 -1
    endloop
  endfacet
  facet normal 0.45399 0.891007 -0
    outer loop
      vertex 1.73431 3.1547 -1
      vertex 1.53281 3.25738 9
      vertex 1.73431 3.1547 9
    endloop
  endfacet
  facet normal 0.45399 0.891007 0
    outer loop
      vertex 1.53281 3.25738 9
      vertex 1.73431 3.1547 -1
      vertex 1.53281 3.25738 -1
    endloop
  endfacet
  facet normal 0.397148 0.917755 -0
    outer loop
      vertex 1.53281 3.25738 -1
      vertex 1.32525 3.3472 9
      vertex 1.53281 3.25738 9
    endloop
  endfacet
  facet normal 0.397148 0.917755 0
    outer loop
      vertex 1.32525 3.3472 9
      vertex 1.53281 3.25738 -1
      vertex 1.32525 3.3472 -1
    endloop
  endfacet
  facet normal 0.338738 0.940881 -0
    outer loop
      vertex 1.32525 3.3472 -1
      vertex 1.11246 3.4238 9
      vertex 1.32525 3.3472 9
    endloop
  endfacet
  facet normal 0.338738 0.940881 0
    outer loop
      vertex 1.11246 3.4238 9
      vertex 1.32525 3.3472 -1
      vertex 1.11246 3.4238 -1
    endloop
  endfacet
  facet normal 0.278991 0.960294 -0
    outer loop
      vertex 1.11246 3.4238 -1
      vertex 0.895284 3.4869 9
      vertex 1.11246 3.4238 9
    endloop
  endfacet
  facet normal 0.278991 0.960294 0
    outer loop
      vertex 0.895284 3.4869 9
      vertex 1.11246 3.4238 -1
      vertex 0.895284 3.4869 -1
    endloop
  endfacet
  facet normal 0.218143 0.975917 -0
    outer loop
      vertex 0.895284 3.4869 -1
      vertex 0.674573 3.53623 9
      vertex 0.895284 3.4869 9
    endloop
  endfacet
  facet normal 0.218143 0.975917 0
    outer loop
      vertex 0.674573 3.53623 9
      vertex 0.895284 3.4869 -1
      vertex 0.674573 3.53623 -1
    endloop
  endfacet
  facet normal 0.156434 0.987688 -0
    outer loop
      vertex 0.674573 3.53623 -1
      vertex 0.4512 3.57161 9
      vertex 0.674573 3.53623 9
    endloop
  endfacet
  facet normal 0.156434 0.987688 0
    outer loop
      vertex 0.4512 3.57161 9
      vertex 0.674573 3.53623 -1
      vertex 0.4512 3.57161 -1
    endloop
  endfacet
  facet normal 0.0941087 0.995562 -0
    outer loop
      vertex 0.4512 3.57161 -1
      vertex 0.226046 3.5929 9
      vertex 0.4512 3.57161 9
    endloop
  endfacet
  facet normal 0.0941087 0.995562 0
    outer loop
      vertex 0.226046 3.5929 9
      vertex 0.4512 3.57161 -1
      vertex 0.226046 3.5929 -1
    endloop
  endfacet
  facet normal 0.0314103 0.999507 -0
    outer loop
      vertex 0.226046 3.5929 -1
      vertex 2.20436e-16 3.6 9
      vertex 0.226046 3.5929 9
    endloop
  endfacet
  facet normal 0.0314103 0.999507 0
    outer loop
      vertex 2.20436e-16 3.6 9
      vertex 0.226046 3.5929 -1
      vertex 2.20436e-16 3.6 -1
    endloop
  endfacet
  facet normal -0.0314103 0.999507 0
    outer loop
      vertex 2.20436e-16 3.6 -1
      vertex -0.226046 3.5929 9
      vertex 2.20436e-16 3.6 9
    endloop
  endfacet
  facet normal -0.0314103 0.999507 0
    outer loop
      vertex -0.226046 3.5929 9
      vertex 2.20436e-16 3.6 -1
      vertex -0.226046 3.5929 -1
    endloop
  endfacet
  facet normal -0.0941087 0.995562 0
    outer loop
      vertex -0.226046 3.5929 -1
      vertex -0.4512 3.57161 9
      vertex -0.226046 3.5929 9
    endloop
  endfacet
  facet normal -0.0941087 0.995562 0
    outer loop
      vertex -0.4512 3.57161 9
      vertex -0.226046 3.5929 -1
      vertex -0.4512 3.57161 -1
    endloop
  endfacet
  facet normal -0.156434 0.987688 0
    outer loop
      vertex -0.4512 3.57161 -1
      vertex -0.674573 3.53623 9
      vertex -0.4512 3.57161 9
    endloop
  endfacet
  facet normal -0.156434 0.987688 0
    outer loop
      vertex -0.674573 3.53623 9
      vertex -0.4512 3.57161 -1
      vertex -0.674573 3.53623 -1
    endloop
  endfacet
  facet normal -0.218143 0.975917 0
    outer loop
      vertex -0.674573 3.53623 -1
      vertex -0.895284 3.4869 9
      vertex -0.674573 3.53623 9
    endloop
  endfacet
  facet normal -0.218143 0.975917 0
    outer loop
      vertex -0.895284 3.4869 9
      vertex -0.674573 3.53623 -1
      vertex -0.895284 3.4869 -1
    endloop
  endfacet
  facet normal -0.278991 0.960294 0
    outer loop
      vertex -0.895284 3.4869 -1
      vertex -1.11246 3.4238 9
      vertex -0.895284 3.4869 9
    endloop
  endfacet
  facet normal -0.278991 0.960294 0
    outer loop
      vertex -1.11246 3.4238 9
      vertex -0.895284 3.4869 -1
      vertex -1.11246 3.4238 -1
    endloop
  endfacet
  facet normal -0.338738 0.940881 0
    outer loop
      vertex -1.11246 3.4238 -1
      vertex -1.32525 3.3472 9
      vertex -1.11246 3.4238 9
    endloop
  endfacet
  facet normal -0.338738 0.940881 0
    outer loop
      vertex -1.32525 3.3472 9
      vertex -1.11246 3.4238 -1
      vertex -1.32525 3.3472 -1
    endloop
  endfacet
  facet normal -0.397148 0.917755 0
    outer loop
      vertex -1.32525 3.3472 -1
      vertex -1.53281 3.25738 9
      vertex -1.32525 3.3472 9
    endloop
  endfacet
  facet normal -0.397148 0.917755 0
    outer loop
      vertex -1.53281 3.25738 9
      vertex -1.32525 3.3472 -1
      vertex -1.53281 3.25738 -1
    endloop
  endfacet
  facet normal -0.45399 0.891007 0
    outer loop
      vertex -1.53281 3.25738 -1
      vertex -1.73431 3.1547 9
      vertex -1.53281 3.25738 9
    endloop
  endfacet
  facet normal -0.45399 0.891007 0
    outer loop
      vertex -1.73431 3.1547 9
      vertex -1.53281 3.25738 -1
      vertex -1.73431 3.1547 -1
    endloop
  endfacet
  facet normal -0.509042 0.860742 0
    outer loop
      vertex -1.73431 3.1547 -1
      vertex -1.92898 3.03958 9
      vertex -1.73431 3.1547 9
    endloop
  endfacet
  facet normal -0.509042 0.860742 0
    outer loop
      vertex -1.92898 3.03958 9
      vertex -1.73431 3.1547 -1
      vertex -1.92898 3.03958 -1
    endloop
  endfacet
  facet normal -0.562083 0.827081 0
    outer loop
      vertex -1.92898 3.03958 -1
      vertex -2.11603 2.91246 9
      vertex -1.92898 3.03958 9
    endloop
  endfacet
  facet normal -0.562083 0.827081 0
    outer loop
      vertex -2.11603 2.91246 9
      vertex -1.92898 3.03958 -1
      vertex -2.11603 2.91246 -1
    endloop
  endfacet
  facet normal -0.612908 0.790155 0
    outer loop
      vertex -2.11603 2.91246 -1
      vertex -2.29473 2.77385 9
      vertex -2.11603 2.91246 9
    endloop
  endfacet
  facet normal -0.612908 0.790155 0
    outer loop
      vertex -2.29473 2.77385 9
      vertex -2.11603 2.91246 -1
      vertex -2.29473 2.77385 -1
    endloop
  endfacet
  facet normal -0.661312 0.750111 0
    outer loop
      vertex -2.29473 2.77385 -1
      vertex -2.46437 2.62429 9
      vertex -2.29473 2.77385 9
    endloop
  endfacet
  facet normal -0.661312 0.750111 0
    outer loop
      vertex -2.46437 2.62429 9
      vertex -2.29473 2.77385 -1
      vertex -2.46437 2.62429 -1
    endloop
  endfacet
  facet normal -0.707107 0.707107 0
    outer loop
      vertex -2.62429 2.46437 -1
      vertex -2.46437 2.62429 9
      vertex -2.46437 2.62429 -1
    endloop
  endfacet
  facet normal -0.707107 0.707107 0
    outer loop
      vertex -2.46437 2.62429 9
      vertex -2.62429 2.46437 -1
      vertex -2.62429 2.46437 9
    endloop
  endfacet
  facet normal -0.750111 0.661312 0
    outer loop
      vertex -2.77385 2.29473 -1
      vertex -2.62429 2.46437 9
      vertex -2.62429 2.46437 -1
    endloop
  endfacet
  facet normal -0.750111 0.661312 0
    outer loop
      vertex -2.62429 2.46437 9
      vertex -2.77385 2.29473 -1
      vertex -2.77385 2.29473 9
    endloop
  endfacet
  facet normal -0.790155 0.612908 0
    outer loop
      vertex -2.91246 2.11603 -1
      vertex -2.77385 2.29473 9
      vertex -2.77385 2.29473 -1
    endloop
  endfacet
  facet normal -0.790155 0.612908 0
    outer loop
      vertex -2.77385 2.29473 9
      vertex -2.91246 2.11603 -1
      vertex -2.91246 2.11603 9
    endloop
  endfacet
  facet normal -0.827081 0.562083 0
    outer loop
      vertex -3.03958 1.92898 -1
      vertex -2.91246 2.11603 9
      vertex -2.91246 2.11603 -1
    endloop
  endfacet
  facet normal -0.827081 0.562083 0
    outer loop
      vertex -2.91246 2.11603 9
      vertex -3.03958 1.92898 -1
      vertex -3.03958 1.92898 9
    endloop
  endfacet
  facet normal -0.860742 0.509042 0
    outer loop
      vertex -3.1547 1.73431 -1
      vertex -3.03958 1.92898 9
      vertex -3.03958 1.92898 -1
    endloop
  endfacet
  facet normal -0.860742 0.509042 0
    outer loop
      vertex -3.03958 1.92898 9
      vertex -3.1547 1.73431 -1
      vertex -3.1547 1.73431 9
    endloop
  endfacet
  facet normal -0.891007 0.45399 0
    outer loop
      vertex -3.25738 1.53281 -1
      vertex -3.1547 1.73431 9
      vertex -3.1547 1.73431 -1
    endloop
  endfacet
  facet normal -0.891007 0.45399 0
    outer loop
      vertex -3.1547 1.73431 9
      vertex -3.25738 1.53281 -1
      vertex -3.25738 1.53281 9
    endloop
  endfacet
  facet normal -0.917755 0.397148 0
    outer loop
      vertex -3.3472 1.32525 -1
      vertex -3.25738 1.53281 9
      vertex -3.25738 1.53281 -1
    endloop
  endfacet
  facet normal -0.917755 0.397148 0
    outer loop
      vertex -3.25738 1.53281 9
      vertex -3.3472 1.32525 -1
      vertex -3.3472 1.32525 9
    endloop
  endfacet
  facet normal -0.940881 0.338738 0
    outer loop
      vertex -3.4238 1.11246 -1
      vertex -3.3472 1.32525 9
      vertex -3.3472 1.32525 -1
    endloop
  endfacet
  facet normal -0.940881 0.338738 0
    outer loop
      vertex -3.3472 1.32525 9
      vertex -3.4238 1.11246 -1
      vertex -3.4238 1.11246 9
    endloop
  endfacet
  facet normal -0.960294 0.278991 0
    outer loop
      vertex -3.4869 0.895284 -1
      vertex -3.4238 1.11246 9
      vertex -3.4238 1.11246 -1
    endloop
  endfacet
  facet normal -0.960294 0.278991 0
    outer loop
      vertex -3.4238 1.11246 9
      vertex -3.4869 0.895284 -1
      vertex -3.4869 0.895284 9
    endloop
  endfacet
  facet normal -0.975917 0.218143 0
    outer loop
      vertex -3.53623 0.674573 -1
      vertex -3.4869 0.895284 9
      vertex -3.4869 0.895284 -1
    endloop
  endfacet
  facet normal -0.975917 0.218143 0
    outer loop
      vertex -3.4869 0.895284 9
      vertex -3.53623 0.674573 -1
      vertex -3.53623 0.674573 9
    endloop
  endfacet
  facet normal -0.987688 0.156434 0
    outer loop
      vertex -3.57161 0.4512 -1
      vertex -3.53623 0.674573 9
      vertex -3.53623 0.674573 -1
    endloop
  endfacet
  facet normal -0.987688 0.156434 0
    outer loop
      vertex -3.53623 0.674573 9
      vertex -3.57161 0.4512 -1
      vertex -3.57161 0.4512 9
    endloop
  endfacet
  facet normal -0.995562 0.0941087 0
    outer loop
      vertex -3.5929 0.226046 -1
      vertex -3.57161 0.4512 9
      vertex -3.57161 0.4512 -1
    endloop
  endfacet
  facet normal -0.995562 0.0941087 0
    outer loop
      vertex -3.57161 0.4512 9
      vertex -3.5929 0.226046 -1
      vertex -3.5929 0.226046 9
    endloop
  endfacet
  facet normal -0.999507 0.0314103 0
    outer loop
      vertex -3.6 4.40873e-16 -1
      vertex -3.5929 0.226046 9
      vertex -3.5929 0.226046 -1
    endloop
  endfacet
  facet normal -0.999507 0.0314103 0
    outer loop
      vertex -3.5929 0.226046 9
      vertex -3.6 4.40873e-16 -1
      vertex -3.6 4.40873e-16 9
    endloop
  endfacet
  facet normal -0.999507 -0.0314103 0
    outer loop
      vertex -3.5929 -0.226046 -1
      vertex -3.6 4.40873e-16 9
      vertex -3.6 4.40873e-16 -1
    endloop
  endfacet
  facet normal -0.999507 -0.0314103 0
    outer loop
      vertex -3.6 4.40873e-16 9
      vertex -3.5929 -0.226046 -1
      vertex -3.5929 -0.226046 9
    endloop
  endfacet
  facet normal -0.995562 -0.0941087 0
    outer loop
      vertex -3.57161 -0.4512 -1
      vertex -3.5929 -0.226046 9
      vertex -3.5929 -0.226046 -1
    endloop
  endfacet
  facet normal -0.995562 -0.0941087 0
    outer loop
      vertex -3.5929 -0.226046 9
      vertex -3.57161 -0.4512 -1
      vertex -3.57161 -0.4512 9
    endloop
  endfacet
  facet normal -0.987688 -0.156434 0
    outer loop
      vertex -3.53623 -0.674573 -1
      vertex -3.57161 -0.4512 9
      vertex -3.57161 -0.4512 -1
    endloop
  endfacet
  facet normal -0.987688 -0.156434 0
    outer loop
      vertex -3.57161 -0.4512 9
      vertex -3.53623 -0.674573 -1
      vertex -3.53623 -0.674573 9
    endloop
  endfacet
  facet normal -0.975917 -0.218143 0
    outer loop
      vertex -3.4869 -0.895284 -1
      vertex -3.53623 -0.674573 9
      vertex -3.53623 -0.674573 -1
    endloop
  endfacet
  facet normal -0.975917 -0.218143 0
    outer loop
      vertex -3.53623 -0.674573 9
      vertex -3.4869 -0.895284 -1
      vertex -3.4869 -0.895284 9
    endloop
  endfacet
  facet normal -0.960294 -0.278991 0
    outer loop
      vertex -3.4238 -1.11246 -1
      vertex -3.4869 -0.895284 9
      vertex -3.4869 -0.895284 -1
    endloop
  endfacet
  facet normal -0.960294 -0.278991 0
    outer loop
      vertex -3.4869 -0.895284 9
      vertex -3.4238 -1.11246 -1
      vertex -3.4238 -1.11246 9
    endloop
  endfacet
  facet normal -0.940881 -0.338738 0
    outer loop
      vertex -3.3472 -1.32525 -1
      vertex -3.4238 -1.11246 9
      vertex -3.4238 -1.11246 -1
    endloop
  endfacet
  facet normal -0.940881 -0.338738 0
    outer loop
      vertex -3.4238 -1.11246 9
      vertex -3.3472 -1.32525 -1
      vertex -3.3472 -1.32525 9
    endloop
  endfacet
  facet normal -0.917755 -0.397148 0
    outer loop
      vertex -3.25738 -1.53281 -1
      vertex -3.3472 -1.32525 9
      vertex -3.3472 -1.32525 -1
    endloop
  endfacet
  facet normal -0.917755 -0.397148 0
    outer loop
      vertex -3.3472 -1.32525 9
      vertex -3.25738 -1.53281 -1
      vertex -3.25738 -1.53281 9
    endloop
  endfacet
  facet normal -0.891007 -0.45399 0
    outer loop
      vertex -3.1547 -1.73431 -1
      vertex -3.25738 -1.53281 9
      vertex -3.25738 -1.53281 -1
    endloop
  endfacet
  facet normal -0.891007 -0.45399 0
    outer loop
      vertex -3.25738 -1.53281 9
      vertex -3.1547 -1.73431 -1
      vertex -3.1547 -1.73431 9
    endloop
  endfacet
  facet normal -0.860742 -0.509042 0
    outer loop
      vertex -3.03958 -1.92898 -1
      vertex -3.1547 -1.73431 9
      vertex -3.1547 -1.73431 -1
    endloop
  endfacet
  facet normal -0.860742 -0.509042 0
    outer loop
      vertex -3.1547 -1.73431 9
      vertex -3.03958 -1.92898 -1
      vertex -3.03958 -1.92898 9
    endloop
  endfacet
  facet normal -0.827081 -0.562083 0
    outer loop
      vertex -2.91246 -2.11603 -1
      vertex -3.03958 -1.92898 9
      vertex -3.03958 -1.92898 -1
    endloop
  endfacet
  facet normal -0.827081 -0.562083 0
    outer loop
      vertex -3.03958 -1.92898 9
      vertex -2.91246 -2.11603 -1
      vertex -2.91246 -2.11603 9
    endloop
  endfacet
  facet normal -0.790155 -0.612908 0
    outer loop
      vertex -2.77385 -2.29473 -1
      vertex -2.91246 -2.11603 9
      vertex -2.91246 -2.11603 -1
    endloop
  endfacet
  facet normal -0.790155 -0.612908 0
    outer loop
      vertex -2.91246 -2.11603 9
      vertex -2.77385 -2.29473 -1
      vertex -2.77385 -2.29473 9
    endloop
  endfacet
  facet normal -0.750111 -0.661312 0
    outer loop
      vertex -2.62429 -2.46437 -1
      vertex -2.77385 -2.29473 9
      vertex -2.77385 -2.29473 -1
    endloop
  endfacet
  facet normal -0.750111 -0.661312 0
    outer loop
      vertex -2.77385 -2.29473 9
      vertex -2.62429 -2.46437 -1
      vertex -2.62429 -2.46437 9
    endloop
  endfacet
  facet normal -0.707107 -0.707107 0
    outer loop
      vertex -2.46437 -2.62429 -1
      vertex -2.62429 -2.46437 9
      vertex -2.62429 -2.46437 -1
    endloop
  endfacet
  facet normal -0.707107 -0.707107 0
    outer loop
      vertex -2.62429 -2.46437 9
      vertex -2.46437 -2.62429 -1
      vertex -2.46437 -2.62429 9
    endloop
  endfacet
  facet normal -0.661312 -0.750111 0
    outer loop
      vertex -2.46437 -2.62429 -1
      vertex -2.29473 -2.77385 9
      vertex -2.46437 -2.62429 9
    endloop
  endfacet
  facet normal -0.661312 -0.750111 -0
    outer loop
      vertex -2.29473 -2.77385 9
      vertex -2.46437 -2.62429 -1
      vertex -2.29473 -2.77385 -1
    endloop
  endfacet
  facet normal -0.612908 -0.790155 0
    outer loop
      vertex -2.29473 -2.77385 -1
      vertex -2.11603 -2.91246 9
      vertex -2.29473 -2.77385 9
    endloop
  endfacet
  facet normal -0.612908 -0.790155 -0
    outer loop
      vertex -2.11603 -2.91246 9
      vertex -2.29473 -2.77385 -1
      vertex -2.11603 -2.91246 -1
    endloop
  endfacet
  facet normal -0.562083 -0.827081 0
    outer loop
      vertex -2.11603 -2.91246 -1
      vertex -1.92898 -3.03958 9
      vertex -2.11603 -2.91246 9
    endloop
  endfacet
  facet normal -0.562083 -0.827081 -0
    outer loop
      vertex -1.92898 -3.03958 9
      vertex -2.11603 -2.91246 -1
      vertex -1.92898 -3.03958 -1
    endloop
  endfacet
  facet normal -0.509042 -0.860742 0
    outer loop
      vertex -1.92898 -3.03958 -1
      vertex -1.73431 -3.1547 9
      vertex -1.92898 -3.03958 9
    endloop
  endfacet
  facet normal -0.509042 -0.860742 -0
    outer loop
      vertex -1.73431 -3.1547 9
      vertex -1.92898 -3.03958 -1
      vertex -1.73431 -3.1547 -1
    endloop
  endfacet
  facet normal -0.45399 -0.891007 0
    outer loop
      vertex -1.73431 -3.1547 -1
      vertex -1.53281 -3.25738 9
      vertex -1.73431 -3.1547 9
    endloop
  endfacet
  facet normal -0.45399 -0.891007 -0
    outer loop
      vertex -1.53281 -3.25738 9
      vertex -1.73431 -3.1547 -1
      vertex -1.53281 -3.25738 -1
    endloop
  endfacet
  facet normal -0.397148 -0.917755 0
    outer loop
      vertex -1.53281 -3.25738 -1
      vertex -1.32525 -3.3472 9
      vertex -1.53281 -3.25738 9
    endloop
  endfacet
  facet normal -0.397148 -0.917755 -0
    outer loop
      vertex -1.32525 -3.3472 9
      vertex -1.53281 -3.25738 -1
      vertex -1.32525 -3.3472 -1
    endloop
  endfacet
  facet normal -0.338738 -0.940881 0
    outer loop
      vertex -1.32525 -3.3472 -1
      vertex -1.11246 -3.4238 9
      vertex -1.32525 -3.3472 9
    endloop
  endfacet
  facet normal -0.338738 -0.940881 -0
    outer loop
      vertex -1.11246 -3.4238 9
      vertex -1.32525 -3.3472 -1
      vertex -1.11246 -3.4238 -1
    endloop
  endfacet
  facet normal -0.278991 -0.960294 0
    outer loop
      vertex -1.11246 -3.4238 -1
      vertex -0.895284 -3.4869 9
      vertex -1.11246 -3.4238 9
    endloop
  endfacet
  facet normal -0.278991 -0.960294 -0
    outer loop
      vertex -0.895284 -3.4869 9
      vertex -1.11246 -3.4238 -1
      vertex -0.895284 -3.4869 -1
    endloop
  endfacet
  facet normal -0.218143 -0.975917 0
    outer loop
      vertex -0.895284 -3.4869 -1
      vertex -0.674573 -3.53623 9
      vertex -0.895284 -3.4869 9
    endloop
  endfacet
  facet normal -0.218143 -0.975917 -0
    outer loop
      vertex -0.674573 -3.53623 9
      vertex -0.895284 -3.4869 -1
      vertex -0.674573 -3.53623 -1
    endloop
  endfacet
  facet normal -0.156434 -0.987688 0
    outer loop
      vertex -0.674573 -3.53623 -1
      vertex -0.4512 -3.57161 9
      vertex -0.674573 -3.53623 9
    endloop
  endfacet
  facet normal -0.156434 -0.987688 -0
    outer loop
      vertex -0.4512 -3.57161 9
      vertex -0.674573 -3.53623 -1
      vertex -0.4512 -3.57161 -1
    endloop
  endfacet
  facet normal -0.0941087 -0.995562 0
    outer loop
      vertex -0.4512 -3.57161 -1
      vertex -0.226046 -3.5929 9
      vertex -0.4512 -3.57161 9
    endloop
  endfacet
  facet normal -0.0941087 -0.995562 -0
    outer loop
      vertex -0.226046 -3.5929 9
      vertex -0.4512 -3.57161 -1
      vertex -0.226046 -3.5929 -1
    endloop
  endfacet
  facet normal -0.0314103 -0.999507 0
    outer loop
      vertex -0.226046 -3.5929 -1
      vertex -6.61309e-16 -3.6 9
      vertex -0.226046 -3.5929 9
    endloop
  endfacet
  facet normal -0.0314103 -0.999507 -0
    outer loop
      vertex -6.61309e-16 -3.6 9
      vertex -0.226046 -3.5929 -1
      vertex -6.61309e-16 -3.6 -1
    endloop
  endfacet
  facet normal 0.0314103 -0.999507 0
    outer loop
      vertex -6.61309e-16 -3.6 -1
      vertex 0.226046 -3.5929 9
      vertex -6.61309e-16 -3.6 9
    endloop
  endfacet
  facet normal 0.0314103 -0.999507 0
    outer loop
      vertex 0.226046 -3.5929 9
      vertex -6.61309e-16 -3.6 -1
      vertex 0.226046 -3.5929 -1
    endloop
  endfacet
  facet normal 0.0941087 -0.995562 0
    outer loop
      vertex 0.226046 -3.5929 -1
      vertex 0.4512 -3.57161 9
      vertex 0.226046 -3.5929 9
    endloop
  endfacet
  facet normal 0.0941087 -0.995562 0
    outer loop
      vertex 0.4512 -3.57161 9
      vertex 0.226046 -3.5929 -1
      vertex 0.4512 -3.57161 -1
    endloop
  endfacet
  facet normal 0.156434 -0.987688 0
    outer loop
      vertex 0.4512 -3.57161 -1
      vertex 0.674573 -3.53623 9
      vertex 0.4512 -3.57161 9
    endloop
  endfacet
  facet normal 0.156434 -0.987688 0
    outer loop
      vertex 0.674573 -3.53623 9
      vertex 0.4512 -3.57161 -1
      vertex 0.674573 -3.53623 -1
    endloop
  endfacet
  facet normal 0.218143 -0.975917 0
    outer loop
      vertex 0.674573 -3.53623 -1
      vertex 0.895284 -3.4869 9
      vertex 0.674573 -3.53623 9
    endloop
  endfacet
  facet normal 0.218143 -0.975917 0
    outer loop
      vertex 0.895284 -3.4869 9
      vertex 0.674573 -3.53623 -1
      vertex 0.895284 -3.4869 -1
    endloop
  endfacet
  facet normal 0.278991 -0.960294 0
    outer loop
      vertex 0.895284 -3.4869 -1
      vertex 1.11246 -3.4238 9
      vertex 0.895284 -3.4869 9
    endloop
  endfacet
  facet normal 0.278991 -0.960294 0
    outer loop
      vertex 1.11246 -3.4238 9
      vertex 0.895284 -3.4869 -1
      vertex 1.11246 -3.4238 -1
    endloop
  endfacet
  facet normal 0.338738 -0.940881 0
    outer loop
      vertex 1.11246 -3.4238 -1
      vertex 1.32525 -3.3472 9
      vertex 1.11246 -3.4238 9
    endloop
  endfacet
  facet normal 0.338738 -0.940881 0
    outer loop
      vertex 1.32525 -3.3472 9
      vertex 1.11246 -3.4238 -1
      vertex 1.32525 -3.3472 -1
    endloop
  endfacet
  facet normal 0.397148 -0.917755 0
    outer loop
      vertex 1.32525 -3.3472 -1
      vertex 1.53281 -3.25738 9
      vertex 1.32525 -3.3472 9
    endloop
  endfacet
  facet normal 0.397148 -0.917755 0
    outer loop
      vertex 1.53281 -3.25738 9
      vertex 1.32525 -3.3472 -1
      vertex 1.53281 -3.25738 -1
    endloop
  endfacet
  facet normal 0.45399 -0.891007 0
    outer loop
      vertex 1.53281 -3.25738 -1
      vertex 1.73431 -3.1547 9
      vertex 1.53281 -3.25738 9
    endloop
  endfacet
  facet normal 0.45399 -0.891007 0
    outer loop
      vertex 1.73431 -3.1547 9
      vertex 1.53281 -3.25738 -1
      vertex 1.73431 -3.1547 -1
    endloop
  endfacet
  facet normal 0.509042 -0.860742 0
    outer loop
      vertex 1.73431 -3.1547 -1
      vertex 1.92898 -3.03958 9
      vertex 1.73431 -3.1547 9
    endloop
  endfacet
  facet normal 0.509042 -0.860742 0
    outer loop
      vertex 1.92898 -3.03958 9
      vertex 1.73431 -3.1547 -1
      vertex 1.92898 -3.03958 -1
    endloop
  endfacet
  facet normal 0.562083 -0.827081 0
    outer loop
      vertex 1.92898 -3.03958 -1
      vertex 2.11603 -2.91246 9
      vertex 1.92898 -3.03958 9
    endloop
  endfacet
  facet normal 0.562083 -0.827081 0
    outer loop
      vertex 2.11603 -2.91246 9
      vertex 1.92898 -3.03958 -1
      vertex 2.11603 -2.91246 -1
    endloop
  endfacet
  facet normal 0.612908 -0.790155 0
    outer loop
      vertex 2.11603 -2.91246 -1
      vertex 2.29473 -2.77385 9
      vertex 2.11603 -2.91246 9
    endloop
  endfacet
  facet normal 0.612908 -0.790155 0
    outer loop
      vertex 2.29473 -2.77385 9
      vertex 2.11603 -2.91246 -1
      vertex 2.29473 -2.77385 -1
    endloop
  endfacet
  facet normal 0.661312 -0.750111 0
    outer loop
      vertex 2.29473 -2.77385 -1
      vertex 2.46437 -2.62429 9
      vertex 2.29473 -2.77385 9
    endloop
  endfacet
  facet normal 0.661312 -0.750111 0
    outer loop
      vertex 2.46437 -2.62429 9
      vertex 2.29473 -2.77385 -1
      vertex 2.46437 -2.62429 -1
    endloop
  endfacet
  facet normal 0.707107 -0.707107 0
    outer loop
      vertex 2.46437 -2.62429 9
      vertex 2.62429 -2.46437 -1
      vertex 2.62429 -2.46437 9
    endloop
  endfacet
  facet normal 0.707107 -0.707107 0
    outer loop
      vertex 2.62429 -2.46437 -1
      vertex 2.46437 -2.62429 9
      vertex 2.46437 -2.62429 -1
    endloop
  endfacet
  facet normal 0.750111 -0.661312 0
    outer loop
      vertex 2.62429 -2.46437 9
      vertex 2.77385 -2.29473 -1
      vertex 2.77385 -2.29473 9
    endloop
  endfacet
  facet normal 0.750111 -0.661312 0
    outer loop
      vertex 2.77385 -2.29473 -1
      vertex 2.62429 -2.46437 9
      vertex 2.62429 -2.46437 -1
    endloop
  endfacet
  facet normal 0.790155 -0.612908 0
    outer loop
      vertex 2.77385 -2.29473 9
      vertex 2.91246 -2.11603 -1
      vertex 2.91246 -2.11603 9
    endloop
  endfacet
  facet normal 0.790155 -0.612908 0
    outer loop
      vertex 2.91246 -2.11603 -1
      vertex 2.77385 -2.29473 9
      vertex 2.77385 -2.29473 -1
    endloop
  endfacet
  facet normal 0.827081 -0.562083 0
    outer loop
      vertex 2.91246 -2.11603 9
      vertex 3.03958 -1.92898 -1
      vertex 3.03958 -1.92898 9
    endloop
  endfacet
  facet normal 0.827081 -0.562083 0
    outer loop
      vertex 3.03958 -1.92898 -1
      vertex 2.91246 -2.11603 9
      vertex 2.91246 -2.11603 -1
    endloop
  endfacet
  facet normal 0.860742 -0.509042 0
    outer loop
      vertex 3.03958 -1.92898 9
      vertex 3.1547 -1.73431 -1
      vertex 3.1547 -1.73431 9
    endloop
  endfacet
  facet normal 0.860742 -0.509042 0
    outer loop
      vertex 3.1547 -1.73431 -1
      vertex 3.03958 -1.92898 9
      vertex 3.03958 -1.92898 -1
    endloop
  endfacet
  facet normal 0.891007 -0.45399 0
    outer loop
      vertex 3.1547 -1.73431 9
      vertex 3.25738 -1.53281 -1
      vertex 3.25738 -1.53281 9
    endloop
  endfacet
  facet normal 0.891007 -0.45399 0
    outer loop
      vertex 3.25738 -1.53281 -1
      vertex 3.1547 -1.73431 9
      vertex 3.1547 -1.73431 -1
    endloop
  endfacet
  facet normal 0.917755 -0.397148 0
    outer loop
      vertex 3.25738 -1.53281 9
      vertex 3.3472 -1.32525 -1
      vertex 3.3472 -1.32525 9
    endloop
  endfacet
  facet normal 0.917755 -0.397148 0
    outer loop
      vertex 3.3472 -1.32525 -1
      vertex 3.25738 -1.53281 9
      vertex 3.25738 -1.53281 -1
    endloop
  endfacet
  facet normal 0.940881 -0.338738 0
    outer loop
      vertex 3.3472 -1.32525 9
      vertex 3.4238 -1.11246 -1
      vertex 3.4238 -1.11246 9
    endloop
  endfacet
  facet normal 0.940881 -0.338738 0
    outer loop
      vertex 3.4238 -1.11246 -1
      vertex 3.3472 -1.32525 9
      vertex 3.3472 -1.32525 -1
    endloop
  endfacet
  facet normal 0.960294 -0.278991 0
    outer loop
      vertex 3.4238 -1.11246 9
      vertex 3.4869 -0.895284 -1
      vertex 3.4869 -0.895284 9
    endloop
  endfacet
  facet normal 0.960294 -0.278991 0
    outer loop
      vertex 3.4869 -0.895284 -1
      vertex 3.4238 -1.11246 9
      vertex 3.4238 -1.11246 -1
    endloop
  endfacet
  facet normal 0.975917 -0.218143 0
    outer loop
      vertex 3.4869 -0.895284 9
      vertex 3.53623 -0.674573 -1
      vertex 3.53623 -0.674573 9
    endloop
  endfacet
  facet normal 0.975917 -0.218143 0
    outer loop
      vertex 3.53623 -0.674573 -1
      vertex 3.4869 -0.895284 9
      vertex 3.4869 -0.895284 -1
    endloop
  endfacet
  facet normal 0.987688 -0.156434 0
    outer loop
      vertex 3.53623 -0.674573 9
      vertex 3.57161 -0.4512 -1
      vertex 3.57161 -0.4512 9
    endloop
  endfacet
  facet normal 0.987688 -0.156434 0
    outer loop
      vertex 3.57161 -0.4512 -1
      vertex 3.53623 -0.674573 9
      vertex 3.53623 -0.674573 -1
    endloop
  endfacet
  facet normal 0.995562 -0.0941087 0
    outer loop
      vertex 3.57161 -0.4512 9
      vertex 3.5929 -0.226046 -1
      vertex 3.5929 -0.226046 9
    endloop
  endfacet
  facet normal 0.995562 -0.0941087 0
    outer loop
      vertex 3.5929 -0.226046 -1
      vertex 3.57161 -0.4512 9
      vertex 3.57161 -0.4512 -1
    endloop
  endfacet
  facet normal 0.999507 -0.0314103 0
    outer loop
      vertex 3.5929 -0.226046 9
      vertex 3.6 0 -1
      vertex 3.6 0 9
    endloop
  endfacet
  facet normal 0.999507 -0.0314103 0
    outer loop
      vertex 3.6 0 -1
      vertex 3.5929 -0.226046 9
      vertex 3.5929 -0.226046 -1
    endloop
  endfacet
  facet normal 0 0 -1
    outer loop
      vertex 3.5929 -0.226046 -1
      vertex 3.5929 0.226046 -1
      vertex 3.6 0 -1
    endloop
  endfacet
  facet normal 0 0 -1
    outer loop
      vertex 3.57161 -0.4512 -1
      vertex 3.5929 0.226046 -1
      vertex 3.5929 -0.226046 -1
    endloop
  endfacet
  facet normal 0 0 -1
    outer loop
      vertex 3.57161 -0.4512 -1
      vertex 3.57161 0.4512 -1
      vertex 3.5929 0.226046 -1
    endloop
  endfacet
  facet normal 0 0 -1
    outer loop
      vertex 3.53623 -0.674573 -1
      vertex 3.57161 0.4512 -1
      vertex 3.57161 -0.4512 -1
    endloop
  endfacet
  facet normal 0 0 -1
    outer loop
      vertex 3.53623 -0.674573 -1
      vertex 3.53623 0.674573 -1
      vertex 3.57161 0.4512 -1
    endloop
  endfacet
  facet normal 0 0 -1
    outer loop
      vertex 3.4869 -0.895284 -1
      vertex 3.53623 0.674573 -1
      vertex 3.53623 -0.674573 -1
    endloop
  endfacet
  facet normal 0 0 -1
    outer loop
      vertex 3.4869 -0.895284 -1
      vertex 3.4869 0.895284 -1
      vertex 3.53623 0.674573 -1
    endloop
  endfacet
  facet normal 0 0 -1
    outer loop
      vertex 3.4238 -1.11246 -1
      vertex 3.4869 0.895284 -1
      vertex 3.4869 -0.895284 -1
    endloop
  endfacet
  facet normal 0 0 -1
    outer loop
      vertex 3.4238 -1.11246 -1
      vertex 3.4238 1.11246 -1
      vertex 3.4869 0.895284 -1
    endloop
  endfacet
  facet normal 0 0 -1
    outer loop
      vertex 3.3472 -1.32525 -1
      vertex 3.4238 1.11246 -1
      vertex 3.4238 -1.11246 -1
    endloop
  endfacet
  facet normal 0 0 -1
    outer loop
      vertex 3.3472 -1.32525 -1
      vertex 3.3472 1.32525 -1
      vertex 3.4238 1.11246 -1
    endloop
  endfacet
  facet normal 0 0 -1
    outer loop
      vertex 3.25738 -1.53281 -1
      vertex 3.3472 1.32525 -1
      vertex 3.3472 -1.32525 -1
    endloop
  endfacet
  facet normal 0 0 -1
    outer loop
      vertex 3.25738 -1.53281 -1
      vertex 3.25738 1.53281 -1
      vertex 3.3472 1.32525 -1
    endloop
  endfacet
  facet normal 0 0 -1
    outer loop
      vertex 3.1547 -1.73431 -1
      vertex 3.25738 1.53281 -1
      vertex 3.25738 -1.53281 -1
    endloop
  endfacet
  facet normal 0 0 -1
    outer loop
      vertex 3.1547 -1.73431 -1
      vertex 3.1547 1.73431 -1
      vertex 3.25738 1.53281 -1
    endloop
  endfacet
  facet normal 0 0 -1
    outer loop
      vertex 3.03958 -1.92898 -1
      vertex 3.1547 1.73431 -1
      vertex 3.1547 -1.73431 -1
    endloop
  endfacet
  facet normal 0 0 -1
    outer loop
      vertex 3.03958 -1.92898 -1
      vertex 3.03958 1.92898 -1
      vertex 3.1547 1.73431 -1
    endloop
  endfacet
  facet normal 0 0 -1
    outer loop
      vertex 2.91246 -2.11603 -1
      vertex 3.03958 1.92898 -1
      vertex 3.03958 -1.92898 -1
    endloop
  endfacet
  facet normal 0 0 -1
    outer loop
      vertex 2.91246 -2.11603 -1
      vertex 2.91246 2.11603 -1
      vertex 3.03958 1.92898 -1
    endloop
  endfacet
  facet normal 0 0 -1
    outer loop
      vertex 2.77385 -2.29473 -1
      vertex 2.91246 2.11603 -1
      vertex 2.91246 -2.11603 -1
    endloop
  endfacet
  facet normal 0 0 -1
    outer loop
      vertex 2.77385 -2.29473 -1
      vertex 2.77385 2.29473 -1
      vertex 2.91246 2.11603 -1
    endloop
  endfacet
  facet normal 0 0 -1
    outer loop
      vertex 2.62429 -2.46437 -1
      vertex 2.77385 2.29473 -1
      vertex 2.77385 -2.29473 -1
    endloop
  endfacet
  facet normal 0 0 -1
    outer loop
      vertex 2.62429 -2.46437 -1
      vertex 2.62429 2.46437 -1
      vertex 2.77385 2.29473 -1
    endloop
  endfacet
  facet normal 0 0 -1
    outer loop
      vertex 2.46437 -2.62429 -1
      vertex 2.62429 2.46437 -1
      vertex 2.62429 -2.46437 -1
    endloop
  endfacet
  facet normal 0 0 -1
    outer loop
      vertex 2.46437 -2.62429 -1
      vertex 2.46437 2.62429 -1
      vertex 2.62429 2.46437 -1
    endloop
  endfacet
  facet normal 0 0 -1
    outer loop
      vertex 2.29473 -2.77385 -1
      vertex 2.46437 2.62429 -1
      vertex 2.46437 -2.62429 -1
    endloop
  endfacet
  facet normal 0 0 -1
    outer loop
      vertex 2.29473 -2.77385 -1
      vertex 2.29473 2.77385 -1
      vertex 2.46437 2.62429 -1
    endloop
  endfacet
  facet normal 0 0 -1
    outer loop
      vertex 2.11603 -2.91246 -1
      vertex 2.29473 2.77385 -1
      vertex 2.29473 -2.77385 -1
    endloop
  endfacet
  facet normal 0 0 -1
    outer loop
      vertex 2.11603 -2.91246 -1
      vertex 2.11603 2.91246 -1
      vertex 2.29473 2.77385 -1
    endloop
  endfacet
  facet normal 0 0 -1
    outer loop
      vertex 1.92898 -3.03958 -1
      vertex 2.11603 2.91246 -1
      vertex 2.11603 -2.91246 -1
    endloop
  endfacet
  facet normal 0 0 -1
    outer loop
      vertex 1.92898 -3.03958 -1
      vertex 1.92898 3.03958 -1
      vertex 2.11603 2.91246 -1
    endloop
  endfacet
  facet normal 0 0 -1
    outer loop
      vertex 1.73431 -3.1547 -1
      vertex 1.92898 3.03958 -1
      vertex 1.92898 -3.03958 -1
    endloop
  endfacet
  facet normal 0 0 -1
    outer loop
      vertex 1.73431 -3.1547 -1
      vertex 1.73431 3.1547 -1
      vertex 1.92898 3.03958 -1
    endloop
  endfacet
  facet normal 0 0 -1
    outer loop
      vertex 1.53281 -3.25738 -1
      vertex 1.73431 3.1547 -1
      vertex 1.73431 -3.1547 -1
    endloop
  endfacet
  facet normal 0 0 -1
    outer loop
      vertex 1.53281 -3.25738 -1
      vertex 1.53281 3.25738 -1
      vertex 1.73431 3.1547 -1
    endloop
  endfacet
  facet normal 0 0 -1
    outer loop
      vertex 1.32525 -3.3472 -1
      vertex 1.53281 3.25738 -1
      vertex 1.53281 -3.25738 -1
    endloop
  endfacet
  facet normal 0 0 -1
    outer loop
      vertex 1.32525 -3.3472 -1
      vertex 1.32525 3.3472 -1
      vertex 1.53281 3.25738 -1
    endloop
  endfacet
  facet normal 0 0 -1
    outer loop
      vertex 1.11246 -3.4238 -1
      vertex 1.32525 3.3472 -1
      vertex 1.32525 -3.3472 -1
    endloop
  endfacet
  facet normal 0 0 -1
    outer loop
      vertex 1.11246 -3.4238 -1
      vertex 1.11246 3.4238 -1
      vertex 1.32525 3.3472 -1
    endloop
  endfacet
  facet normal 0 0 -1
    outer loop
      vertex 0.895284 -3.4869 -1
      vertex 1.11246 3.4238 -1
      vertex 1.11246 -3.4238 -1
    endloop
  endfacet
  facet normal 0 0 -1
    outer loop
      vertex 0.895284 -3.4869 -1
      vertex 0.895284 3.4869 -1
      vertex 1.11246 3.4238 -1
    endloop
  endfacet
  facet normal 0 0 -1
    outer loop
      vertex 0.674573 -3.53623 -1
      vertex 0.895284 3.4869 -1
      vertex 0.895284 -3.4869 -1
    endloop
  endfacet
  facet normal 0 0 -1
    outer loop
      vertex 0.674573 -3.53623 -1
      vertex 0.674573 3.53623 -1
      vertex 0.895284 3.4869 -1
    endloop
  endfacet
  facet normal 0 0 -1
    outer loop
      vertex 0.4512 -3.57161 -1
      vertex 0.674573 3.53623 -1
      vertex 0.674573 -3.53623 -1
    endloop
  endfacet
  facet normal 0 0 -1
    outer loop
      vertex 0.4512 -3.57161 -1
      vertex 0.4512 3.57161 -1
      vertex 0.674573 3.53623 -1
    endloop
  endfacet
  facet normal 0 0 -1
    outer loop
      vertex 0.226046 -3.5929 -1
      vertex 0.4512 3.57161 -1
      vertex 0.4512 -3.57161 -1
    endloop
  endfacet
  facet normal 0 0 -1
    outer loop
      vertex 0.226046 -3.5929 -1
      vertex 0.226046 3.5929 -1
      vertex 0.4512 3.57161 -1
    endloop
  endfacet
  facet normal 0 0 -1
    outer loop
      vertex 0.226046 -3.5929 -1
      vertex 2.20436e-16 3.6 -1
      vertex 0.226046 3.5929 -1
    endloop
  endfacet
  facet normal 0 0 -1
    outer loop
      vertex -6.61309e-16 -3.6 -1
      vertex 2.20436e-16 3.6 -1
      vertex 0.226046 -3.5929 -1
    endloop
  endfacet
  facet normal 0 0 -1
    outer loop
      vertex -0.226046 -3.5929 -1
      vertex 2.20436e-16 3.6 -1
      vertex -6.61309e-16 -3.6 -1
    endloop
  endfacet
  facet normal 0 0 -1
    outer loop
      vertex -0.226046 -3.5929 -1
      vertex -0.226046 3.5929 -1
      vertex 2.20436e-16 3.6 -1
    endloop
  endfacet
  facet normal 0 0 -1
    outer loop
      vertex -0.4512 -3.57161 -1
      vertex -0.226046 3.5929 -1
      vertex -0.226046 -3.5929 -1
    endloop
  endfacet
  facet normal 0 0 -1
    outer loop
      vertex -0.4512 -3.57161 -1
      vertex -0.4512 3.57161 -1
      vertex -0.226046 3.5929 -1
    endloop
  endfacet
  facet normal 0 0 -1
    outer loop
      vertex -0.674573 -3.53623 -1
      vertex -0.4512 3.57161 -1
      vertex -0.4512 -3.57161 -1
    endloop
  endfacet
  facet normal 0 0 -1
    outer loop
      vertex -0.674573 -3.53623 -1
      vertex -0.674573 3.53623 -1
      vertex -0.4512 3.57161 -1
    endloop
  endfacet
  facet normal 0 0 -1
    outer loop
      vertex -0.895284 -3.4869 -1
      vertex -0.674573 3.53623 -1
      vertex -0.674573 -3.53623 -1
    endloop
  endfacet
  facet normal 0 0 -1
    outer loop
      vertex -0.895284 -3.4869 -1
      vertex -0.895284 3.4869 -1
      vertex -0.674573 3.53623 -1
    endloop
  endfacet
  facet normal 0 0 -1
    outer loop
      vertex -1.11246 -3.4238 -1
      vertex -0.895284 3.4869 -1
      vertex -0.895284 -3.4869 -1
    endloop
  endfacet
  facet normal 0 0 -1
    outer loop
      vertex -1.11246 -3.4238 -1
      vertex -1.11246 3.4238 -1
      vertex -0.895284 3.4869 -1
    endloop
  endfacet
  facet normal 0 0 -1
    outer loop
      vertex -1.32525 -3.3472 -1
      vertex -1.11246 3.4238 -1
      vertex -1.11246 -3.4238 -1
    endloop
  endfacet
  facet normal 0 0 -1
    outer loop
      vertex -1.32525 -3.3472 -1
      vertex -1.32525 3.3472 -1
      vertex -1.11246 3.4238 -1
    endloop
  endfacet
  facet normal 0 0 -1
    outer loop
      vertex -1.53281 -3.25738 -1
      vertex -1.32525 3.3472 -1
      vertex -1.32525 -3.3472 -1
    endloop
  endfacet
  facet normal 0 0 -1
    outer loop
      vertex -1.53281 -3.25738 -1
      vertex -1.53281 3.25738 -1
      vertex -1.32525 3.3472 -1
    endloop
  endfacet
  facet normal 0 0 -1
    outer loop
      vertex -1.73431 -3.1547 -1
      vertex -1.53281 3.25738 -1
      vertex -1.53281 -3.25738 -1
    endloop
  endfacet
  facet normal 0 0 -1
    outer loop
      vertex -1.73431 -3.1547 -1
      vertex -1.73431 3.1547 -1
      vertex -1.53281 3.25738 -1
    endloop
  endfacet
  facet normal 0 0 -1
    outer loop
      vertex -1.92898 -3.03958 -1
      vertex -1.73431 3.1547 -1
      vertex -1.73431 -3.1547 -1
    endloop
  endfacet
  facet normal 0 0 -1
    outer loop
      vertex -1.92898 -3.03958 -1
      vertex -1.92898 3.03958 -1
      vertex -1.73431 3.1547 -1
    endloop
  endfacet
  facet normal 0 0 -1
    outer loop
      vertex -2.11603 -2.91246 -1
      vertex -1.92898 3.03958 -1
      vertex -1.92898 -3.03958 -1
    endloop
  endfacet
  facet normal 0 0 -1
    outer loop
      vertex -2.11603 -2.91246 -1
      vertex -2.11603 2.91246 -1
      vertex -1.92898 3.03958 -1
    endloop
  endfacet
  facet normal 0 0 -1
    outer loop
      vertex -2.29473 -2.77385 -1
      vertex -2.11603 2.91246 -1
      vertex -2.11603 -2.91246 -1
    endloop
  endfacet
  facet normal 0 0 -1
    outer loop
      vertex -2.29473 -2.77385 -1
      vertex -2.29473 2.77385 -1
      vertex -2.11603 2.91246 -1
    endloop
  endfacet
  facet normal 0 0 -1
    outer loop
      vertex -2.46437 -2.62429 -1
      vertex -2.29473 2.77385 -1
      vertex -2.29473 -2.77385 -1
    endloop
  endfacet
  facet normal 0 0 -1
    outer loop
      vertex -2.46437 -2.62429 -1
      vertex -2.46437 2.62429 -1
      vertex -2.29473 2.77385 -1
    endloop
  endfacet
  facet normal 0 0 -1
    outer loop
      vertex -2.62429 -2.46437 -1
      vertex -2.46437 2.62429 -1
      vertex -2.46437 -2.62429 -1
    endloop
  endfacet
  facet normal 0 0 -1
    outer loop
      vertex -2.62429 -2.46437 -1
      vertex -2.62429 2.46437 -1
      vertex -2.46437 2.62429 -1
    endloop
  endfacet
  facet normal 0 0 -1
    outer loop
      vertex -2.77385 -2.29473 -1
      vertex -2.62429 2.46437 -1
      vertex -2.62429 -2.46437 -1
    endloop
  endfacet
  facet normal 0 0 -1
    outer loop
      vertex -2.77385 -2.29473 -1
      vertex -2.77385 2.29473 -1
      vertex -2.62429 2.46437 -1
    endloop
  endfacet
  facet normal 0 0 -1
    outer loop
      vertex -2.91246 -2.11603 -1
      vertex -2.77385 2.29473 -1
      vertex -2.77385 -2.29473 -1
    endloop
  endfacet
  facet normal 0 0 -1
    outer loop
      vertex -2.91246 -2.11603 -1
      vertex -2.91246 2.11603 -1
      vertex -2.77385 2.29473 -1
    endloop
  endfacet
  facet normal 0 0 -1
    outer loop
      vertex -3.03958 -1.92898 -1
      vertex -2.91246 2.11603 -1
      vertex -2.91246 -2.11603 -1
    endloop
  endfacet
  facet normal 0 0 -1
    outer loop
      vertex -3.03958 -1.92898 -1
      vertex -3.03958 1.92898 -1
      vertex -2.91246 2.11603 -1
    endloop
  endfacet
  facet normal 0 0 -1
    outer loop
      vertex -3.1547 -1.73431 -1
      vertex -3.03958 1.92898 -1
      vertex -3.03958 -1.92898 -1
    endloop
  endfacet
  facet normal 0 0 -1
    outer loop
      vertex -3.1547 -1.73431 -1
      vertex -3.1547 1.73431 -1
      vertex -3.03958 1.92898 -1
    endloop
  endfacet
  facet normal 0 0 -1
    outer loop
      vertex -3.25738 -1.53281 -1
      vertex -3.1547 1.73431 -1
      vertex -3.1547 -1.73431 -1
    endloop
  endfacet
  facet normal 0 0 -1
    outer loop
      vertex -3.25738 -1.53281 -1
      vertex -3.25738 1.53281 -1
      vertex -3.1547 1.73431 -1
    endloop
  endfacet
  facet normal 0 0 -1
    outer loop
      vertex -3.3472 -1.32525 -1
      vertex -3.25738 1.53281 -1
      vertex -3.25738 -1.53281 -1
    endloop
  endfacet
  facet normal 0 0 -1
    outer loop
      vertex -3.3472 -1.32525 -1
      vertex -3.3472 1.32525 -1
      vertex -3.25738 1.53281 -1
    endloop
  endfacet
  facet normal 0 0 -1
    outer loop
      vertex -3.4238 -1.11246 -1
      vertex -3.3472 1.32525 -1
      vertex -3.3472 -1.32525 -1
    endloop
  endfacet
  facet normal 0 0 -1
    outer loop
      vertex -3.4238 -1.11246 -1
      vertex -3.4238 1.11246 -1
      vertex -3.3472 1.32525 -1
    endloop
  endfacet
  facet normal 0 0 -1
    outer loop
      vertex -3.4869 -0.895284 -1
      vertex -3.4238 1.11246 -1
      vertex -3.4238 -1.11246 -1
    endloop
  endfacet
  facet normal 0 0 -1
    outer loop
      vertex -3.4869 -0.895284 -1
      vertex -3.4869 0.895284 -1
      vertex -3.4238 1.11246 -1
    endloop
  endfacet
  facet normal 0 0 -1
    outer loop
      vertex -3.53623 -0.674573 -1
      vertex -3.4869 0.895284 -1
      vertex -3.4869 -0.895284 -1
    endloop
  endfacet
  facet normal 0 0 -1
    outer loop
      vertex -3.53623 -0.674573 -1
      vertex -3.53623 0.674573 -1
      vertex -3.4869 0.895284 -1
    endloop
  endfacet
  facet normal 0 0 -1
    outer loop
      vertex -3.57161 -0.4512 -1
      vertex -3.53623 0.674573 -1
      vertex -3.53623 -0.674573 -1
    endloop
  endfacet
  facet normal 0 0 -1
    outer loop
      vertex -3.57161 -0.4512 -1
      vertex -3.57161 0.4512 -1
      vertex -3.53623 0.674573 -1
    endloop
  endfacet
  facet normal 0 0 -1
    outer loop
      vertex -3.5929 -0.226046 -1
      vertex -3.57161 0.4512 -1
      vertex -3.57161 -0.4512 -1
    endloop
  endfacet
  facet normal 0 0 -1
    outer loop
      vertex -3.5929 -0.226046 -1
      vertex -3.5929 0.226046 -1
      vertex -3.57161 0.4512 -1
    endloop
  endfacet
  facet normal 0 -0 -1
    outer loop
      vertex -3.5929 0.226046 -1
      vertex -3.5929 -0.226046 -1
      vertex -3.6 4.40873e-16 -1
    endloop
  endfacet
  facet normal 0 0 1
    outer loop
      vertex 3.5929 0.226046 9
      vertex 3.5929 -0.226046 9
      vertex 3.6 0 9
    endloop
  endfacet
  facet normal 0 0 1
    outer loop
      vertex 3.57161 0.4512 9
      vertex 3.5929 -0.226046 9
      vertex 3.5929 0.226046 9
    endloop
  endfacet
  facet normal 0 0 1
    outer loop
      vertex 3.57161 0.4512 9
      vertex 3.57161 -0.4512 9
      vertex 3.5929 -0.226046 9
    endloop
  endfacet
  facet normal 0 0 1
    outer loop
      vertex 3.53623 0.674573 9
      vertex 3.57161 -0.4512 9
      vertex 3.57161 0.4512 9
    endloop
  endfacet
  facet normal 0 0 1
    outer loop
      vertex 3.53623 0.674573 9
      vertex 3.53623 -0.674573 9
      vertex 3.57161 -0.4512 9
    endloop
  endfacet
  facet normal 0 0 1
    outer loop
      vertex 3.4869 0.895284 9
      vertex 3.53623 -0.674573 9
      vertex 3.53623 0.674573 9
    endloop
  endfacet
  facet normal 0 0 1
    outer loop
      vertex 3.4869 0.895284 9
      vertex 3.4869 -0.895284 9
      vertex 3.53623 -0.674573 9
    endloop
  endfacet
  facet normal 0 0 1
    outer loop
      vertex 3.4238 1.11246 9
      vertex 3.4869 -0.895284 9
      vertex 3.4869 0.895284 9
    endloop
  endfacet
  facet normal 0 0 1
    outer loop
      vertex 3.4238 1.11246 9
      vertex 3.4238 -1.11246 9
      vertex 3.4869 -0.895284 9
    endloop
  endfacet
  facet normal 0 0 1
    outer loop
      vertex 3.3472 1.32525 9
      vertex 3.4238 -1.11246 9
      vertex 3.4238 1.11246 9
    endloop
  endfacet
  facet normal 0 0 1
    outer loop
      vertex 3.3472 1.32525 9
      vertex 3.3472 -1.32525 9
      vertex 3.4238 -1.11246 9
    endloop
  endfacet
  facet normal 0 0 1
    outer loop
      vertex 3.25738 1.53281 9
      vertex 3.3472 -1.32525 9
      vertex 3.3472 1.32525 9
    endloop
  endfacet
  facet normal 0 0 1
    outer loop
      vertex 3.25738 1.53281 9
      vertex 3.25738 -1.53281 9
      vertex 3.3472 -1.32525 9
    endloop
  endfacet
  facet normal 0 0 1
    outer loop
      vertex 3.1547 1.73431 9
      vertex 3.25738 -1.53281 9
      vertex 3.25738 1.53281 9
    endloop
  endfacet
  facet normal 0 0 1
    outer loop
      vertex 3.1547 1.73431 9
      vertex 3.1547 -1.73431 9
      vertex 3.25738 -1.53281 9
    endloop
  endfacet
  facet normal 0 0 1
    outer loop
      vertex 3.03958 1.92898 9
      vertex 3.1547 -1.73431 9
      vertex 3.1547 1.73431 9
    endloop
  endfacet
  facet normal 0 0 1
    outer loop
      vertex 3.03958 1.92898 9
      vertex 3.03958 -1.92898 9
      vertex 3.1547 -1.73431 9
    endloop
  endfacet
  facet normal 0 0 1
    outer loop
      vertex 2.91246 2.11603 9
      vertex 3.03958 -1.92898 9
      vertex 3.03958 1.92898 9
    endloop
  endfacet
  facet normal 0 0 1
    outer loop
      vertex 2.91246 2.11603 9
      vertex 2.91246 -2.11603 9
      vertex 3.03958 -1.92898 9
    endloop
  endfacet
  facet normal 0 0 1
    outer loop
      vertex 2.77385 2.29473 9
      vertex 2.91246 -2.11603 9
      vertex 2.91246 2.11603 9
    endloop
  endfacet
  facet normal 0 0 1
    outer loop
      vertex 2.77385 2.29473 9
      vertex 2.77385 -2.29473 9
      vertex 2.91246 -2.11603 9
    endloop
  endfacet
  facet normal 0 0 1
    outer loop
      vertex 2.62429 2.46437 9
      vertex 2.77385 -2.29473 9
      vertex 2.77385 2.29473 9
    endloop
  endfacet
  facet normal 0 0 1
    outer loop
      vertex 2.62429 2.46437 9
      vertex 2.62429 -2.46437 9
      vertex 2.77385 -2.29473 9
    endloop
  endfacet
  facet normal 0 0 1
    outer loop
      vertex 2.46437 2.62429 9
      vertex 2.62429 -2.46437 9
      vertex 2.62429 2.46437 9
    endloop
  endfacet
  facet normal 0 0 1
    outer loop
      vertex 2.46437 2.62429 9
      vertex 2.46437 -2.62429 9
      vertex 2.62429 -2.46437 9
    endloop
  endfacet
  facet normal 0 0 1
    outer loop
      vertex 2.29473 2.77385 9
      vertex 2.46437 -2.62429 9
      vertex 2.46437 2.62429 9
    endloop
  endfacet
  facet normal 0 0 1
    outer loop
      vertex 2.29473 2.77385 9
      vertex 2.29473 -2.77385 9
      vertex 2.46437 -2.62429 9
    endloop
  endfacet
  facet normal 0 0 1
    outer loop
      vertex 2.11603 2.91246 9
      vertex 2.29473 -2.77385 9
      vertex 2.29473 2.77385 9
    endloop
  endfacet
  facet normal 0 0 1
    outer loop
      vertex 2.11603 2.91246 9
      vertex 2.11603 -2.91246 9
      vertex 2.29473 -2.77385 9
    endloop
  endfacet
  facet normal 0 0 1
    outer loop
      vertex 1.92898 3.03958 9
      vertex 2.11603 -2.91246 9
      vertex 2.11603 2.91246 9
    endloop
  endfacet
  facet normal 0 0 1
    outer loop
      vertex 1.92898 3.03958 9
      vertex 1.92898 -3.03958 9
      vertex 2.11603 -2.91246 9
    endloop
  endfacet
  facet normal 0 0 1
    outer loop
      vertex 1.73431 3.1547 9
      vertex 1.92898 -3.03958 9
      vertex 1.92898 3.03958 9
    endloop
  endfacet
  facet normal 0 0 1
    outer loop
      vertex 1.73431 3.1547 9
      vertex 1.73431 -3.1547 9
      vertex 1.92898 -3.03958 9
    endloop
  endfacet
  facet normal 0 0 1
    outer loop
      vertex 1.53281 3.25738 9
      vertex 1.73431 -3.1547 9
      vertex 1.73431 3.1547 9
    endloop
  endfacet
  facet normal 0 0 1
    outer loop
      vertex 1.53281 3.25738 9
      vertex 1.53281 -3.25738 9
      vertex 1.73431 -3.1547 9
    endloop
  endfacet
  facet normal 0 0 1
    outer loop
      vertex 1.32525 3.3472 9
      vertex 1.53281 -3.25738 9
      vertex 1.53281 3.25738 9
    endloop
  endfacet
  facet normal 0 0 1
    outer loop
      vertex 1.32525 3.3472 9
      vertex 1.32525 -3.3472 9
      vertex 1.53281 -3.25738 9
    endloop
  endfacet
  facet normal 0 0 1
    outer loop
      vertex 1.11246 3.4238 9
      vertex 1.32525 -3.3472 9
      vertex 1.32525 3.3472 9
    endloop
  endfacet
  facet normal 0 0 1
    outer loop
      vertex 1.11246 3.4238 9
      vertex 1.11246 -3.4238 9
      vertex 1.32525 -3.3472 9
    endloop
  endfacet
  facet normal 0 0 1
    outer loop
      vertex 0.895284 3.4869 9
      vertex 1.11246 -3.4238 9
      vertex 1.11246 3.4238 9
    endloop
  endfacet
  facet normal 0 0 1
    outer loop
      vertex 0.895284 3.4869 9
      vertex 0.895284 -3.4869 9
      vertex 1.11246 -3.4238 9
    endloop
  endfacet
  facet normal 0 0 1
    outer loop
      vertex 0.674573 3.53623 9
      vertex 0.895284 -3.4869 9
      vertex 0.895284 3.4869 9
    endloop
  endfacet
  facet normal 0 0 1
    outer loop
      vertex 0.674573 3.53623 9
      vertex 0.674573 -3.53623 9
      vertex 0.895284 -3.4869 9
    endloop
  endfacet
  facet normal 0 0 1
    outer loop
      vertex 0.4512 3.57161 9
      vertex 0.674573 -3.53623 9
      vertex 0.674573 3.53623 9
    endloop
  endfacet
  facet normal 0 0 1
    outer loop
      vertex 0.4512 3.57161 9
      vertex 0.4512 -3.57161 9
      vertex 0.674573 -3.53623 9
    endloop
  endfacet
  facet normal 0 0 1
    outer loop
      vertex 0.226046 3.5929 9
      vertex 0.4512 -3.57161 9
      vertex 0.4512 3.57161 9
    endloop
  endfacet
  facet normal 0 0 1
    outer loop
      vertex 0.226046 3.5929 9
      vertex 0.226046 -3.5929 9
      vertex 0.4512 -3.57161 9
    endloop
  endfacet
  facet normal 0 0 1
    outer loop
      vertex 2.20436e-16 3.6 9
      vertex 0.226046 -3.5929 9
      vertex 0.226046 3.5929 9
    endloop
  endfacet
  facet normal 0 0 1
    outer loop
      vertex 2.20436e-16 3.6 9
      vertex -6.61309e-16 -3.6 9
      vertex 0.226046 -3.5929 9
    endloop
  endfacet
  facet normal -0 0 1
    outer loop
      vertex -0.226046 3.5929 9
      vertex -6.61309e-16 -3.6 9
      vertex 2.20436e-16 3.6 9
    endloop
  endfacet
  facet normal 0 0 1
    outer loop
      vertex -0.226046 3.5929 9
      vertex -0.226046 -3.5929 9
      vertex -6.61309e-16 -3.6 9
    endloop
  endfacet
  facet normal -0 0 1
    outer loop
      vertex -0.4512 3.57161 9
      vertex -0.226046 -3.5929 9
      vertex -0.226046 3.5929 9
    endloop
  endfacet
  facet normal 0 0 1
    outer loop
      vertex -0.4512 3.57161 9
      vertex -0.4512 -3.57161 9
      vertex -0.226046 -3.5929 9
    endloop
  endfacet
  facet normal -0 0 1
    outer loop
      vertex -0.674573 3.53623 9
      vertex -0.4512 -3.57161 9
      vertex -0.4512 3.57161 9
    endloop
  endfacet
  facet normal 0 0 1
    outer loop
      vertex -0.674573 3.53623 9
      vertex -0.674573 -3.53623 9
      vertex -0.4512 -3.57161 9
    endloop
  endfacet
  facet normal -0 0 1
    outer loop
      vertex -0.895284 3.4869 9
      vertex -0.674573 -3.53623 9
      vertex -0.674573 3.53623 9
    endloop
  endfacet
  facet normal 0 0 1
    outer loop
      vertex -0.895284 3.4869 9
      vertex -0.895284 -3.4869 9
      vertex -0.674573 -3.53623 9
    endloop
  endfacet
  facet normal -0 0 1
    outer loop
      vertex -1.11246 3.4238 9
      vertex -0.895284 -3.4869 9
      vertex -0.895284 3.4869 9
    endloop
  endfacet
  facet normal 0 0 1
    outer loop
      vertex -1.11246 3.4238 9
      vertex -1.11246 -3.4238 9
      vertex -0.895284 -3.4869 9
    endloop
  endfacet
  facet normal -0 0 1
    outer loop
      vertex -1.32525 3.3472 9
      vertex -1.11246 -3.4238 9
      vertex -1.11246 3.4238 9
    endloop
  endfacet
  facet normal 0 0 1
    outer loop
      vertex -1.32525 3.3472 9
      vertex -1.32525 -3.3472 9
      vertex -1.11246 -3.4238 9
    endloop
  endfacet
  facet normal -0 0 1
    outer loop
      vertex -1.53281 3.25738 9
      vertex -1.32525 -3.3472 9
      vertex -1.32525 3.3472 9
    endloop
  endfacet
  facet normal 0 0 1
    outer loop
      vertex -1.53281 3.25738 9
      vertex -1.53281 -3.25738 9
      vertex -1.32525 -3.3472 9
    endloop
  endfacet
  facet normal -0 0 1
    outer loop
      vertex -1.73431 3.1547 9
      vertex -1.53281 -3.25738 9
      vertex -1.53281 3.25738 9
    endloop
  endfacet
  facet normal 0 0 1
    outer loop
      vertex -1.73431 3.1547 9
      vertex -1.73431 -3.1547 9
      vertex -1.53281 -3.25738 9
    endloop
  endfacet
  facet normal -0 0 1
    outer loop
      vertex -1.92898 3.03958 9
      vertex -1.73431 -3.1547 9
      vertex -1.73431 3.1547 9
    endloop
  endfacet
  facet normal 0 0 1
    outer loop
      vertex -1.92898 3.03958 9
      vertex -1.92898 -3.03958 9
      vertex -1.73431 -3.1547 9
    endloop
  endfacet
  facet normal -0 0 1
    outer loop
      vertex -2.11603 2.91246 9
      vertex -1.92898 -3.03958 9
      vertex -1.92898 3.03958 9
    endloop
  endfacet
  facet normal 0 0 1
    outer loop
      vertex -2.11603 2.91246 9
      vertex -2.11603 -2.91246 9
      vertex -1.92898 -3.03958 9
    endloop
  endfacet
  facet normal -0 0 1
    outer loop
      vertex -2.29473 2.77385 9
      vertex -2.11603 -2.91246 9
      vertex -2.11603 2.91246 9
    endloop
  endfacet
  facet normal 0 0 1
    outer loop
      vertex -2.29473 2.77385 9
      vertex -2.29473 -2.77385 9
      vertex -2.11603 -2.91246 9
    endloop
  endfacet
  facet normal -0 0 1
    outer loop
      vertex -2.46437 2.62429 9
      vertex -2.29473 -2.77385 9
      vertex -2.29473 2.77385 9
    endloop
  endfacet
  facet normal 0 0 1
    outer loop
      vertex -2.46437 2.62429 9
      vertex -2.46437 -2.62429 9
      vertex -2.29473 -2.77385 9
    endloop
  endfacet
  facet normal -0 0 1
    outer loop
      vertex -2.62429 2.46437 9
      vertex -2.46437 -2.62429 9
      vertex -2.46437 2.62429 9
    endloop
  endfacet
  facet normal 0 0 1
    outer loop
      vertex -2.62429 2.46437 9
      vertex -2.62429 -2.46437 9
      vertex -2.46437 -2.62429 9
    endloop
  endfacet
  facet normal -0 0 1
    outer loop
      vertex -2.77385 2.29473 9
      vertex -2.62429 -2.46437 9
      vertex -2.62429 2.46437 9
    endloop
  endfacet
  facet normal 0 0 1
    outer loop
      vertex -2.77385 2.29473 9
      vertex -2.77385 -2.29473 9
      vertex -2.62429 -2.46437 9
    endloop
  endfacet
  facet normal -0 0 1
    outer loop
      vertex -2.91246 2.11603 9
      vertex -2.77385 -2.29473 9
      vertex -2.77385 2.29473 9
    endloop
  endfacet
  facet normal 0 0 1
    outer loop
      vertex -2.91246 2.11603 9
      vertex -2.91246 -2.11603 9
      vertex -2.77385 -2.29473 9
    endloop
  endfacet
  facet normal -0 0 1
    outer loop
      vertex -3.03958 1.92898 9
      vertex -2.91246 -2.11603 9
      vertex -2.91246 2.11603 9
    endloop
  endfacet
  facet normal 0 0 1
    outer loop
      vertex -3.03958 1.92898 9
      vertex -3.03958 -1.92898 9
      vertex -2.91246 -2.11603 9
    endloop
  endfacet
  facet normal -0 0 1
    outer loop
      vertex -3.1547 1.73431 9
      vertex -3.03958 -1.92898 9
      vertex -3.03958 1.92898 9
    endloop
  endfacet
  facet normal 0 0 1
    outer loop
      vertex -3.1547 1.73431 9
      vertex -3.1547 -1.73431 9
      vertex -3.03958 -1.92898 9
    endloop
  endfacet
  facet normal -0 0 1
    outer loop
      vertex -3.25738 1.53281 9
      vertex -3.1547 -1.73431 9
      vertex -3.1547 1.73431 9
    endloop
  endfacet
  facet normal 0 0 1
    outer loop
      vertex -3.25738 1.53281 9
      vertex -3.25738 -1.53281 9
      vertex -3.1547 -1.73431 9
    endloop
  endfacet
  facet normal -0 0 1
    outer loop
      vertex -3.3472 1.32525 9
      vertex -3.25738 -1.53281 9
      vertex -3.25738 1.53281 9
    endloop
  endfacet
  facet normal 0 0 1
    outer loop
      vertex -3.3472 1.32525 9
      vertex -3.3472 -1.32525 9
      vertex -3.25738 -1.53281 9
    endloop
  endfacet
  facet normal -0 0 1
    outer loop
      vertex -3.4238 1.11246 9
      vertex -3.3472 -1.32525 9
      vertex -3.3472 1.32525 9
    endloop
  endfacet
  facet normal 0 0 1
    outer loop
      vertex -3.4238 1.11246 9
      vertex -3.4238 -1.11246 9
      vertex -3.3472 -1.32525 9
    endloop
  endfacet
  facet normal -0 0 1
    outer loop
      vertex -3.4869 0.895284 9
      vertex -3.4238 -1.11246 9
      vertex -3.4238 1.11246 9
    endloop
  endfacet
  facet normal 0 0 1
    outer loop
      vertex -3.4869 0.895284 9
      vertex -3.4869 -0.895284 9
      vertex -3.4238 -1.11246 9
    endloop
  endfacet
  facet normal -0 0 1
    outer loop
      vertex -3.53623 0.674573 9
      vertex -3.4869 -0.895284 9
      vertex -3.4869 0.895284 9
    endloop
  endfacet
  facet normal 0 0 1
    outer loop
      vertex -3.53623 0.674573 9
      vertex -3.53623 -0.674573 9
      vertex -3.4869 -0.895284 9
    endloop
  endfacet
  facet normal -0 0 1
    outer loop
      vertex -3.57161 0.4512 9
      vertex -3.53623 -0.674573 9
      vertex -3.53623 0.674573 9
    endloop
  endfacet
  facet normal 0 0 1
    outer loop
      vertex -3.57161 0.4512 9
      vertex -3.57161 -0.4512 9
      vertex -3.53623 -0.674573 9
    endloop
  endfacet
  facet normal -0 0 1
    outer loop
      vertex -3.5929 0.226046 9
      vertex -3.57161 -0.4512 9
      vertex -3.57161 0.4512 9
    endloop
  endfacet
  facet normal 0 0 1
    outer loop
      vertex -3.5929 0.226046 9
      vertex -3.5929 -0.226046 9
      vertex -3.57161 -0.4512 9
    endloop
  endfacet
  facet normal 0 -0 1
    outer loop
      vertex -3.5929 -0.226046 9
      vertex -3.5929 0.226046 9
      vertex -3.6 4.40873e-16 9
    endloop
  endfacet
endsolid OpenSCAD_Model
